<svg width="40" height="40" viewBox="0 0 40 40" fill="none" xmlns="http://www.w3.org/2000/svg">
<g id="budget">
<g id="Group 33">
<path id="image 280 (Traced)" fill-rule="evenodd" clip-rule="evenodd" d="M7.51126 3.1375C7.12798 3.33988 6.99375 3.66675 6.99375 4.39765V5.00045H6.39094C5.64818 5.00045 5.33064 5.13408 5.12753 5.53217C4.95749 5.86544 4.95749 6.1359 5.12753 6.46917C5.33064 6.86726 5.64818 7.00089 6.39094 7.00089H6.99375V7.60369C6.99375 8.34646 7.12737 8.664 7.52546 8.86711C7.85874 9.03715 8.1292 9.03715 8.46247 8.86711C8.86056 8.664 8.99419 8.34646 8.99419 7.60369V7.00089H9.59699C10.3398 7.00089 10.6573 6.86726 10.8604 6.46917C11.0304 6.1359 11.0304 5.86544 10.8604 5.53217C10.6573 5.13408 10.3398 5.00045 9.59699 5.00045H8.99419V4.39765C8.99419 3.65488 8.86056 3.33734 8.46247 3.13423C8.13393 2.96666 7.833 2.96766 7.51126 3.1375ZM13.5486 3.1351C13.346 3.23805 13.2286 3.35995 13.1238 3.5764C12.9345 3.96742 12.9704 4.16759 13.3895 5.05833C14.205 6.79158 14.6544 8.3892 14.8589 10.2824C14.8974 10.6384 14.9289 10.946 14.9289 10.9658C14.9289 10.9856 17.2094 11.0018 19.9966 11.0018C22.7839 11.0018 25.0644 10.9856 25.0644 10.9658C25.0644 10.946 25.0959 10.6384 25.1344 10.2824C25.3389 8.3892 25.7883 6.79158 26.6038 5.05833C27.0232 4.16686 27.0588 3.96755 26.8689 3.57513C26.6868 3.19904 26.262 2.96226 25.877 3.02227C25.7419 3.04334 24.859 3.44337 23.9151 3.9112L22.1989 4.76179L21.4146 3.98962C20.5895 3.17744 20.3353 3 19.9966 3C19.658 3 19.4038 3.17744 18.5787 3.98962L17.7944 4.76179L16.0782 3.90974C15.0645 3.40649 14.2529 3.04448 14.0953 3.02534C13.9053 3.0022 13.7481 3.03381 13.5486 3.1351ZM31.5166 9.20552C31.1333 9.4079 30.9991 9.73477 30.9991 10.4657V11.0685H30.3963C29.9238 11.0685 29.7367 11.0975 29.5304 11.2027C29.2345 11.3537 28.9987 11.7378 28.9987 12.0687C28.9987 12.3996 29.2345 12.7837 29.5304 12.9347C29.7367 13.0399 29.9238 13.0689 30.3963 13.0689H30.9991V13.6717C30.9991 14.1442 31.0281 14.3313 31.1333 14.5376C31.2843 14.8335 31.6685 15.0694 31.9993 15.0694C32.3302 15.0694 32.7144 14.8335 32.8653 14.5376C32.9705 14.3313 32.9996 14.1442 32.9996 13.6717V13.0689H33.6024C34.0749 13.0689 34.262 13.0399 34.4683 12.9347C34.7641 12.7837 35 12.3996 35 12.0687C35 11.7378 34.7641 11.3537 34.4683 11.2027C34.262 11.0975 34.0749 11.0685 33.6024 11.0685H32.9996V10.4657C32.9996 9.7229 32.8659 9.40536 32.4678 9.20225C32.1393 9.03468 31.8384 9.03568 31.5166 9.20552ZM7.51126 13.2064C6.84311 13.5592 6.83718 14.5378 7.50079 14.9183C8.00797 15.209 8.63331 15.0242 8.86436 14.5153C9.0276 14.1558 9.02647 13.927 8.85996 13.6006C8.61391 13.1183 8.01157 12.9423 7.51126 13.2064ZM12.0036 15.3302C9.20691 18.715 9.01853 18.9766 8.29624 20.4789C6.82904 23.5304 6.60232 27.1996 7.7007 30.1178C8.17554 31.3792 8.93144 32.5419 9.92773 33.5432C11.3436 34.9662 13.0991 35.9461 15.2956 36.5395C18.6958 37.4581 22.9256 37.2865 26.0647 36.1024C29.7726 34.7037 32.2728 31.7267 32.8364 28.0389C33.3046 24.9758 32.6289 21.7994 30.9428 19.1369C30.5955 18.5885 30.2876 18.1949 28.1133 15.5195L26.1217 13.0689H19.9969H13.872L12.0036 15.3302ZM20.4652 17.2707C20.897 17.491 20.9969 17.7714 20.9969 18.7637V19.5959L21.3998 19.8106C21.8843 20.0689 22.4544 20.6635 22.685 21.1511C22.889 21.5822 23.0231 22.2793 22.9634 22.5976C22.8703 23.094 22.4929 23.4048 21.9838 23.4043C21.4327 23.4038 21.0744 23.0489 20.9889 22.4191C20.9057 21.8056 20.5168 21.4459 19.9464 21.4545C19.2113 21.4656 18.7412 22.3393 19.1467 22.941C19.3639 23.2634 19.624 23.3851 20.2551 23.4598C22.4117 23.7152 23.6095 25.9294 22.6158 27.8239C22.3407 28.3485 21.8161 28.8626 21.3267 29.0871L20.9969 29.2384V29.7916C20.9969 30.2144 20.9653 30.4068 20.8626 30.6079C20.7117 30.9038 20.3275 31.1396 19.9966 31.1396C19.6658 31.1396 19.2816 30.9038 19.1307 30.6079C19.0282 30.407 18.9964 30.214 18.9962 29.792L18.996 29.2392L18.6901 29.1134C18.3161 28.9595 17.6508 28.356 17.4186 27.9598C17.1787 27.5504 16.996 26.9233 16.996 26.5092C16.996 25.9156 17.4034 25.4636 17.9459 25.4553C18.5164 25.4467 18.9053 25.8065 18.9885 26.42C19.0753 27.0595 19.4309 27.4047 20.0034 27.4052C20.4163 27.4055 20.7221 27.1945 20.8876 26.7952C21.191 26.063 20.6465 25.4089 19.7299 25.4047C19.1665 25.402 18.378 25.0345 17.8914 24.5477C16.4575 23.1134 16.8074 20.7626 18.5969 19.8089L18.9964 19.5959V18.7637C18.9964 18.0614 19.0174 17.8903 19.1305 17.6685C19.377 17.1854 19.9584 17.0122 20.4652 17.2707Z" fill="#CBC6A0"/>
<path id="image 280 (Traced)_2" fill-rule="evenodd" clip-rule="evenodd" d="M13.5369 3.1351C13.3342 3.23805 13.2169 3.35995 13.1121 3.5764C12.9228 3.96742 12.9587 4.16759 13.3778 5.05833C14.1933 6.79158 14.6427 8.3892 14.8472 10.2824C14.8857 10.6384 14.9171 10.946 14.9171 10.9658C14.9171 10.9856 17.1976 11.0018 19.9849 11.0018C22.7722 11.0018 25.0527 10.9856 25.0527 10.9658C25.0527 10.946 25.0842 10.6384 25.1227 10.2824C25.3272 8.3892 25.7766 6.79158 26.5921 5.05833C27.0115 4.16686 27.0471 3.96755 26.8571 3.57513C26.6751 3.19904 26.2503 2.96226 25.8653 3.02227C25.7302 3.04334 24.8473 3.44337 23.9034 3.9112L22.1872 4.76179L21.4029 3.98962C20.5778 3.17744 20.3235 3 19.9849 3C19.6463 3 19.3921 3.17744 18.567 3.98962L17.7826 4.76179L16.0665 3.90974C15.0528 3.40649 14.2412 3.04448 14.0836 3.02534C13.8936 3.0022 13.7363 3.03381 13.5369 3.1351ZM11.9919 15.3302C9.19519 18.715 9.00681 18.9766 8.28452 20.4789C6.81732 23.5304 6.59061 27.1996 7.68899 30.1178C8.16382 31.3792 8.91973 32.5419 9.91602 33.5432C11.3319 34.9662 13.0874 35.9461 15.2839 36.5395C18.684 37.4581 22.9139 37.2865 26.053 36.1024C29.7609 34.7037 32.2611 31.7267 32.8247 28.0389C33.2929 24.9758 32.6172 21.7994 30.931 19.1369C30.5838 18.5885 30.2759 18.1949 28.1016 15.5195L26.11 13.0689H19.9852H13.8603L11.9919 15.3302ZM20.4534 17.2707C20.8853 17.491 20.9852 17.7714 20.9852 18.7637V19.5959L21.388 19.8106C21.8726 20.0689 22.4427 20.6635 22.6733 21.1511C22.8772 21.5822 23.0114 22.2793 22.9517 22.5976C22.8586 23.094 22.4812 23.4048 21.972 23.4043C21.421 23.4038 21.0627 23.0489 20.9772 22.4191C20.894 21.8056 20.5051 21.4459 19.9347 21.4545C19.1996 21.4656 18.7295 22.3393 19.1349 22.941C19.3522 23.2634 19.6123 23.3851 20.2434 23.4598C22.4 23.7152 23.5977 25.9294 22.6041 27.8239C22.329 28.3485 21.8043 28.8626 21.315 29.0871L20.9852 29.2384V29.7916C20.9852 30.2144 20.9535 30.4068 20.8509 30.6079C20.7 30.9038 20.3158 31.1396 19.9849 31.1396C19.6541 31.1396 19.2699 30.9038 19.1189 30.6079C19.0165 30.407 18.9846 30.214 18.9844 29.792L18.9842 29.2392L18.6784 29.1134C18.3044 28.9595 17.6391 28.356 17.4069 27.9598C17.167 27.5504 16.9843 26.9233 16.9843 26.5092C16.9843 25.9156 17.3917 25.4636 17.9342 25.4553C18.5047 25.4467 18.8936 25.8065 18.9768 26.42C19.0636 27.0595 19.4192 27.4047 19.9917 27.4052C20.4046 27.4055 20.7104 27.1945 20.8759 26.7952C21.1793 26.063 20.6348 25.4089 19.7182 25.4047C19.1547 25.402 18.3662 25.0345 17.8797 24.5477C16.4457 23.1134 16.7957 20.7626 18.5852 19.8089L18.9847 19.5959V18.7637C18.9847 18.0614 19.0056 17.8903 19.1188 17.6685C19.3653 17.1854 19.9467 17.0122 20.4534 17.2707Z" fill="#21AB68"/>
</g>
</g>
</svg>
