<svg width="24" height="24" viewBox="0 0 24 24" fill="none" xmlns="http://www.w3.org/2000/svg">
<g id="PAyMsp icons">
<path id="Vector 4" d="M18.364 7.05024C18.7545 6.65972 18.7545 6.02655 18.364 5.63603C17.9734 5.2455 17.3403 5.2455 16.9497 5.63603L18.364 7.05024ZM5.63604 16.9497C5.24552 17.3403 5.24551 17.9734 5.63604 18.3639C6.02656 18.7545 6.65973 18.7545 7.05025 18.3639L5.63604 16.9497ZM16.9497 18.3639C17.3403 18.7545 17.9734 18.7545 18.364 18.3639C18.7545 17.9734 18.7545 17.3403 18.364 16.9497L16.9497 18.3639ZM7.05025 5.63603C6.65973 5.2455 6.02656 5.2455 5.63604 5.63603C5.24551 6.02655 5.24551 6.65972 5.63604 7.05024L7.05025 5.63603ZM16.9497 5.63603L11.2929 11.2929L12.7071 12.7071L18.364 7.05024L16.9497 5.63603ZM11.2929 11.2929L5.63604 16.9497L7.05025 18.3639L12.7071 12.7071L11.2929 11.2929ZM11.2929 12.7071L16.9497 18.3639L18.364 16.9497L12.7071 11.2929L11.2929 12.7071ZM18.364 16.9497L7.05025 5.63603L5.63604 7.05024L16.9497 18.3639L18.364 16.9497Z" fill="#7E7E82"/>
</g>
</svg>
