<svg width="40" height="40" viewBox="0 0 40 40" fill="none" xmlns="http://www.w3.org/2000/svg">
<g id="Company">
<g id="Group 35">
<path id="image 283 (Traced)" fill-rule="evenodd" clip-rule="evenodd" d="M13.235 4.12669C13.0922 4.20213 12.9524 4.34588 12.8756 4.49644C12.7507 4.74131 12.7499 4.83763 12.7499 20.3703V35.9978H14.0312H15.3124V32.8703C15.3124 29.9229 15.3193 29.7294 15.431 29.5104C15.5006 29.3741 15.6526 29.2202 15.7989 29.1379L16.0482 28.9978H19.9953C23.8279 28.9978 23.9496 29.0014 24.1891 29.1236C24.3479 29.2046 24.4806 29.3374 24.5616 29.4962C24.6828 29.7336 24.6874 29.8592 24.6874 32.8703V35.9978H25.9687H27.2499V20.3703C27.2499 4.83138 27.2493 4.74144 27.1241 4.49619C27.0431 4.33738 26.9104 4.20463 26.7516 4.12363C26.5089 3.99988 26.3989 3.99788 19.9868 4.00056C13.6206 4.00325 13.4633 4.00619 13.235 4.12669ZM16.6891 6.62363C17.1275 6.84731 17.1874 7.05775 17.1874 8.37281C17.1874 9.68788 17.1275 9.89831 16.6891 10.122C16.3689 10.2853 16.1075 10.2811 15.7989 10.1077C15.3629 9.86263 15.3121 9.67894 15.3151 8.35969C15.3181 7.0565 15.3598 6.90481 15.787 6.64625C16.0863 6.46513 16.3646 6.45813 16.6891 6.62363ZM20.4391 6.62363C20.8775 6.84731 20.9374 7.05775 20.9374 8.37281C20.9374 9.68788 20.8775 9.89831 20.4391 10.122C20.1189 10.2853 19.8575 10.2811 19.5489 10.1077C19.1129 9.86263 19.0621 9.67894 19.0651 8.35969C19.0681 7.0565 19.1098 6.90481 19.537 6.64625C19.8363 6.46513 20.1146 6.45813 20.4391 6.62363ZM24.1891 6.62363C24.6275 6.84731 24.6874 7.05775 24.6874 8.37281C24.6874 9.68788 24.6275 9.89831 24.1891 10.122C23.8689 10.2853 23.6075 10.2811 23.2989 10.1077C22.8629 9.86263 22.8121 9.67894 22.8151 8.35969C22.8181 7.0565 22.8598 6.90481 23.287 6.64625C23.5863 6.46513 23.8646 6.45813 24.1891 6.62363ZM16.6891 12.2486C17.1275 12.4723 17.1874 12.6828 17.1874 13.9978C17.1874 15.3129 17.1275 15.5233 16.6891 15.747C16.3689 15.9103 16.1075 15.9061 15.7989 15.7327C15.3629 15.4876 15.3121 15.3039 15.3151 13.9847C15.3181 12.6815 15.3598 12.5298 15.787 12.2713C16.0863 12.0901 16.3646 12.0831 16.6891 12.2486ZM20.4391 12.2486C20.8775 12.4723 20.9374 12.6828 20.9374 13.9978C20.9374 15.3129 20.8775 15.5233 20.4391 15.747C20.1189 15.9103 19.8575 15.9061 19.5489 15.7327C19.1129 15.4876 19.0621 15.3039 19.0651 13.9847C19.0681 12.6815 19.1098 12.5298 19.537 12.2713C19.8363 12.0901 20.1146 12.0831 20.4391 12.2486ZM24.1891 12.2486C24.6275 12.4723 24.6874 12.6828 24.6874 13.9978C24.6874 15.3129 24.6275 15.5233 24.1891 15.747C23.8689 15.9103 23.6075 15.9061 23.2989 15.7327C22.8629 15.4876 22.8121 15.3039 22.8151 13.9847C22.8181 12.6815 22.8598 12.5298 23.287 12.2713C23.5863 12.0901 23.8646 12.0831 24.1891 12.2486ZM16.6891 17.8736C17.1275 18.0973 17.1874 18.3077 17.1874 19.6228C17.1874 20.9379 17.1275 21.1483 16.6891 21.372C16.3689 21.5353 16.1075 21.5311 15.7989 21.3577C15.3629 21.1126 15.3121 20.9289 15.3151 19.6097C15.3181 18.3065 15.3598 18.1548 15.787 17.8962C16.0863 17.7151 16.3646 17.7081 16.6891 17.8736ZM20.4391 17.8736C20.8775 18.0973 20.9374 18.3077 20.9374 19.6228C20.9374 20.9379 20.8775 21.1483 20.4391 21.372C20.1189 21.5353 19.8575 21.5311 19.5489 21.3577C19.1129 21.1126 19.0621 20.9289 19.0651 19.6097C19.0681 18.3065 19.1098 18.1548 19.537 17.8962C19.8363 17.7151 20.1146 17.7081 20.4391 17.8736ZM24.1891 17.8736C24.6275 18.0973 24.6874 18.3077 24.6874 19.6228C24.6874 20.9379 24.6275 21.1483 24.1891 21.372C23.8689 21.5353 23.6075 21.5311 23.2989 21.3577C22.8629 21.1126 22.8121 20.9289 22.8151 19.6097C22.8181 18.3065 22.8598 18.1548 23.287 17.8962C23.5863 17.7151 23.8646 17.7081 24.1891 17.8736ZM16.6891 23.4986C17.1275 23.7223 17.1874 23.9327 17.1874 25.2478C17.1874 26.5629 17.1275 26.7733 16.6891 26.997C16.3689 27.1603 16.1075 27.1561 15.7989 26.9827C15.3629 26.7376 15.3121 26.5539 15.3151 25.2347C15.3181 23.9315 15.3598 23.7798 15.787 23.5212C16.0863 23.3401 16.3646 23.3331 16.6891 23.4986ZM20.4391 23.4986C20.8775 23.7223 20.9374 23.9327 20.9374 25.2478C20.9374 26.5629 20.8775 26.7733 20.4391 26.997C20.1189 27.1603 19.8575 27.1561 19.5489 26.9827C19.1129 26.7376 19.0621 26.5539 19.0651 25.2347C19.0681 23.9315 19.1098 23.7798 19.537 23.5212C19.8363 23.3401 20.1146 23.3331 20.4391 23.4986ZM24.1891 23.4986C24.6275 23.7223 24.6874 23.9327 24.6874 25.2478C24.6874 26.5629 24.6275 26.7733 24.1891 26.997C23.8689 27.1603 23.6075 27.1561 23.2989 26.9827C22.8629 26.7376 22.8121 26.5539 22.8151 25.2347C22.8181 23.9315 22.8598 23.7798 23.287 23.5212C23.5863 23.3401 23.8646 23.3331 24.1891 23.4986ZM17.1874 33.4353V35.9978H18.1249H19.0624V33.4353V30.8728H18.1249H17.1874V33.4353ZM20.9374 33.4353V35.9978H21.8749H22.8124V33.4353V30.8728H21.8749H20.9374V33.4353Z" fill="#21AB68"/>
<path id="image 283 (Traced)_2" fill-rule="evenodd" clip-rule="evenodd" d="M4.48506 16.9289C4.34225 17.0044 4.2025 17.1481 4.12569 17.2987C4.0015 17.5422 4 17.652 4 26.55C4 35.4517 4.00144 35.5579 4.12581 35.8017C4.20681 35.9605 4.33956 36.0932 4.49837 36.1742C4.73562 36.2952 4.86156 36.3 7.81 36.3H10.875V26.55V16.8L7.79688 16.8028C4.85575 16.8054 4.70838 16.811 4.48506 16.9289ZM29.125 26.55V36.3H32.19C35.1384 36.3 35.2644 36.2952 35.5016 36.1742C35.6604 36.0932 35.7932 35.9605 35.8742 35.8017C35.9986 35.5579 36 35.4517 36 26.55C36 17.6484 35.9986 17.5422 35.8742 17.2984C35.7932 17.1396 35.6604 17.0069 35.5016 16.9259C35.2644 16.8049 35.1384 16.8 32.19 16.8H29.125V26.55ZM7.87663 20.6759C8.31506 20.8995 8.375 21.11 8.375 22.425C8.375 23.7401 8.31506 23.9505 7.87663 24.1742C7.55644 24.3375 7.29506 24.3334 6.98644 24.1599C6.55044 23.9149 6.49962 23.7312 6.50262 22.4119C6.50562 21.1087 6.54737 20.957 6.97456 20.6985C7.27381 20.5174 7.55219 20.5104 7.87663 20.6759ZM33.0016 20.6759C33.4401 20.8995 33.5 21.11 33.5 22.425C33.5 23.7401 33.4401 23.9505 33.0016 24.1742C32.6814 24.3375 32.4201 24.3334 32.1114 24.1599C31.6754 23.9149 31.6246 23.7312 31.6276 22.4119C31.6306 21.1087 31.6724 20.957 32.0996 20.6985C32.3988 20.5174 32.6772 20.5104 33.0016 20.6759ZM7.87663 26.3009C8.31506 26.5245 8.375 26.735 8.375 28.05C8.375 29.3651 8.31506 29.5756 7.87663 29.7992C7.55644 29.9626 7.29506 29.9584 6.98644 29.7849C6.55044 29.5399 6.49962 29.3562 6.50262 28.0369C6.50562 26.7337 6.54737 26.582 6.97456 26.3235C7.27381 26.1424 7.55219 26.1354 7.87663 26.3009ZM33.0016 26.3009C33.4401 26.5245 33.5 26.735 33.5 28.05C33.5 29.3651 33.4401 29.5756 33.0016 29.7992C32.6814 29.9626 32.4201 29.9584 32.1114 29.7849C31.6754 29.5399 31.6246 29.3562 31.6276 28.0369C31.6306 26.7337 31.6724 26.582 32.0996 26.3235C32.3988 26.1424 32.6772 26.1354 33.0016 26.3009Z" fill="#CBC6A0"/>
</g>
</g>
</svg>
