<svg width="16" height="16" viewBox="0 0 16 16" fill="none" xmlns="http://www.w3.org/2000/svg">
<g id="Group 245">
<path id="Rectangle 509" d="M7.25 14.6666H12.0833C13.7402 14.6666 15.0833 13.3235 15.0833 11.6666V8.50465C15.0833 7.81862 14.8482 7.15332 14.4172 6.61963L13.0672 4.9483C12.4977 4.24315 11.6398 3.83331 10.7334 3.83331H7.25C5.59315 3.83331 4.25 5.17646 4.25 6.83331V11.6666C4.25 13.3235 5.59314 14.6666 7.25 14.6666Z" stroke="#7E7E82" stroke-width="1.5"/>
<path id="Rectangle 510" d="M10.0827 3.83331V3.83331C10.4926 2.60341 9.57721 1.33331 8.28078 1.33331H6.74935H3.91602C2.25916 1.33331 0.916016 2.67646 0.916016 4.33331V8.33331C0.916016 9.99017 2.25916 11.3333 3.91602 11.3333H4.66602" stroke="#7E7E82" stroke-width="1.5"/>
</g>
</svg>
