<svg width="81" height="80" viewBox="0 0 81 80" fill="none" xmlns="http://www.w3.org/2000/svg">
<path fill-rule="evenodd" clip-rule="evenodd" d="M42.6829 7.62264C40.0267 7.87905 37.0756 8.58721 34.1735 9.66446C30.9783 10.8505 25.4551 13.9072 25.6068 14.4055C25.8747 15.2855 26.6986 24.822 26.705 27.1176C26.7066 27.676 26.7483 28.3776 26.7978 28.6766L26.8877 29.2205L27.6301 29.224C31.1442 29.2408 34.1129 32.2322 34.0975 35.7409C34.0869 38.141 32.7592 40.3433 30.6603 41.4424C29.624 41.9849 28.1665 42.35 27.4537 42.2454L27.0287 42.1831L26.9371 45.7447C26.8868 47.7038 26.8082 49.9918 26.7622 50.8294L26.6787 52.3521L27.6707 52.8384C29.9499 53.956 31.5538 55.4693 32.5057 57.4005C33.5023 59.4226 33.7332 61.4561 33.2775 64.1997C32.9615 66.1026 33.1208 67.3704 33.8647 68.8758C34.8041 70.7764 36.4758 71.9418 38.8654 72.3619C49.4932 74.2305 60.5459 70.5893 68.0624 62.7434C77.5268 52.8641 79.8435 38.3861 73.9103 26.1964C72.1104 22.4985 70.0697 19.6779 67.0574 16.724C60.2413 10.0407 51.4892 6.7725 42.6829 7.62264ZM41.4197 17.1156C44.7373 17.9797 46.8708 21.1824 46.3096 24.4558C45.766 27.6249 43.0737 29.9281 39.8962 29.9421C36.3599 29.9577 33.383 26.9765 33.383 23.4194C33.383 19.2481 37.4273 16.0758 41.4197 17.1156ZM38.9317 21.5264C37.3407 22.2487 37.3687 24.6127 38.977 25.376C40.1 25.9088 41.4235 25.3801 41.866 24.2214C42.2942 23.0998 41.7821 21.9045 40.6749 21.4419C40.043 21.1779 39.6582 21.1965 38.9317 21.5264ZM57.9018 21.5348C61.2825 22.1658 63.6863 25.5481 63.132 28.8939C62.4911 32.7613 58.8047 35.194 55.0623 34.2191C53.8432 33.9016 52.9249 33.356 52.03 32.4179C51.142 31.4869 50.7266 30.7508 50.4157 29.5569C49.6456 26.6002 51.0367 23.5121 53.7388 22.1806C55.2472 21.4374 56.4115 21.2568 57.9018 21.5348ZM55.7151 26.0662C54.879 26.4949 54.5106 27.165 54.593 28.1073C54.7029 29.3639 55.6392 30.1563 56.8878 30.0492C57.7686 29.9738 58.3824 29.5198 58.689 28.7172C59.1172 27.5956 58.6052 26.4003 57.4979 25.9377C56.8368 25.6615 56.4498 25.6894 55.7151 26.0662ZM27.0653 33.7412C27.0217 33.8552 27.0041 34.8262 27.0266 35.8989C27.0668 37.8294 27.0709 37.85 27.4122 37.8983C27.9575 37.9754 28.9914 37.5065 29.3325 37.0274C30.0055 36.0825 29.7769 34.645 28.8489 33.9842C28.3055 33.5972 27.1795 33.4439 27.0653 33.7412ZM62.7156 38.4285C66.0345 39.293 68.1922 42.4831 67.6397 45.7089C66.7513 50.8952 60.6658 53.0467 56.8341 49.5292C54.0544 46.9775 53.9688 42.8126 56.6421 40.1694C58.334 38.4966 60.5446 37.8629 62.7156 38.4285ZM60.2109 42.8892C59.3857 43.3124 59.0067 43.9901 59.0859 44.901C59.2823 47.155 62.2978 47.6633 63.1581 45.5875C63.6291 44.451 63.1281 43.2346 61.9937 42.7607C61.3327 42.4846 60.9456 42.5124 60.2109 42.8892ZM50.5672 50.7629C51.7115 51.0591 52.8272 51.7448 53.6846 52.6787C57.202 56.5105 55.0506 62.5959 49.8643 63.4843C47.1828 63.9436 44.2393 62.3897 43.074 59.8991C41.8445 57.2718 42.308 54.5213 44.3233 52.4867C46.0025 50.7914 48.2641 50.167 50.5672 50.7629ZM47.896 55.1381C46.5739 55.7894 46.3764 57.6408 47.5217 58.6464C48.5398 59.5402 50.0757 59.3035 50.7463 58.1494C51.8288 56.2864 49.8369 54.1819 47.896 55.1381Z" fill="#21AB68"/>
<path fill-rule="evenodd" clip-rule="evenodd" d="M15.6619 3.26283C13.6496 4.32601 12.1045 9.11506 11.1935 17.1127C10.5984 22.3372 10.1742 31.2363 10.1722 38.5387L10.1712 42.2731H16.7207H23.2702L23.1771 35.8557C22.9167 17.8954 21.4686 7.592 18.7166 4.11718C17.8619 3.03804 16.7014 2.71347 15.6619 3.26283ZM10.3609 49.5435C10.4105 51.1494 10.4797 52.4916 10.5143 52.5263C10.549 52.5611 10.9065 52.4227 11.3086 52.219C11.7108 52.015 12.6146 51.6734 13.3172 51.4595C14.4511 51.1143 14.8307 51.0706 16.6974 51.0706C18.564 51.0706 18.9437 51.1143 20.0775 51.4595C20.7801 51.6734 21.6839 52.015 22.0861 52.219C22.4882 52.4227 22.8457 52.5611 22.8804 52.5263C22.9151 52.4916 22.9842 51.1494 23.0338 49.5435L23.1243 46.6239H16.6974H10.2704L10.3609 49.5435ZM14.5513 55.6187C12.9638 56.0346 11.8399 56.6926 10.6013 57.931C9.34513 59.1872 8.70136 60.2998 8.28223 61.938C8.04352 62.8717 7.9958 63.545 7.9958 65.9816C7.9958 69.2947 7.87297 69.9575 7.06169 71.0198C6.39385 71.8946 5.37983 72.5433 4.34652 72.7568L3.5 72.9316V75.0779V77.2243H8.41188C13.8895 77.2243 15.0082 77.1087 17.0142 76.335C19.2028 75.4911 21.6963 73.5047 23.0657 71.5144C24.8957 68.8547 25.7927 64.9411 25.1917 62.2395C24.8074 60.5118 24.0816 59.2044 22.8002 57.931C21.5366 56.6752 20.4187 56.0294 18.7863 55.6118C17.3899 55.2548 15.9313 55.2571 14.5513 55.6187Z" fill="#CCC8A4"/>
</svg>
