<svg width="151" height="150" viewBox="0 0 151 150" fill="none" xmlns="http://www.w3.org/2000/svg">
<rect x="3.56226" y="3.5625" width="112.812" height="118.453" rx="11.2812" fill="white"/>
<rect x="3.56226" y="3.5625" width="112.812" height="118.453" rx="11.2812" stroke="#CCC8A4" stroke-width="5.64062"/>
<rect x="20.4812" y="40.2266" width="54.526" height="5.64062" rx="2.82031" stroke="#D2D2CF" stroke-width="5.64062"/>
<rect x="20.4812" y="68.4297" width="54.526" height="5.64062" rx="2.82031" stroke="#D2D2CF" stroke-width="5.64062"/>
<rect x="20.4812" y="96.6328" width="22.5625" height="5.64062" rx="2.82031" stroke="#D2D2CF" stroke-width="5.64062"/>
<path d="M3.56226 14.8438C3.56226 8.61329 8.61304 3.5625 14.8435 3.5625H105.094C111.324 3.5625 116.375 8.61329 116.375 14.8438V20.4844H3.56226V14.8438Z" fill="#CCC8A4" stroke="#CCC8A4" stroke-width="5.64062"/>
<path d="M124.506 109.727C120.834 106.056 114.882 106.056 111.21 109.727C107.539 113.399 107.539 119.351 111.21 123.023L130.953 142.765C134.624 146.436 140.576 146.436 144.248 142.765C147.919 139.093 147.919 133.141 144.248 129.47L124.506 109.727Z" fill="#21AB68" stroke="#F2F1E8" stroke-width="7.52083" stroke-linecap="round"/>
<path d="M68.0325 93.8125C68.0325 80.3132 78.9759 69.3698 92.4752 69.3698C105.975 69.3698 116.918 80.3132 116.918 93.8125C116.918 107.312 105.975 118.255 92.4752 118.255C78.9759 118.255 68.0325 107.312 68.0325 93.8125ZM92.4752 50.5677C68.5918 50.5677 49.2304 69.9291 49.2304 93.8125C49.2304 117.696 68.5918 137.057 92.4752 137.057C116.359 137.057 135.72 117.696 135.72 93.8125C135.72 69.9291 116.359 50.5677 92.4752 50.5677Z" fill="#21AB68" stroke="#F2F1E8" stroke-width="7.52083"/>
</svg>
