<svg width="19" height="18" viewBox="0 0 19 18" fill="none" xmlns="http://www.w3.org/2000/svg">
<rect width="19" height="18" fill="#1E1E1E"/>
<g id="1024">
<rect width="1024" height="3434" transform="translate(-284 -451)" fill="#F2F1E8"/>
<g id="Frame 2">
<rect width="1024" height="474" transform="translate(-284 -391)" fill="#F2F1E8"/>
<g id="Frame 7062">
<g id="Frame 1048">
<g id="Valid table buttons">
<rect x="-23" y="-14.5" width="239" height="47" fill="#21AB68"/>
<rect x="-23" y="-14.5" width="239" height="47" stroke="#21AB68"/>
<g id="Frame 1047">
<g id="Frame 1046">
<g id="validtable icons">
<g id="Frame" clip-path="url(#clip0_731_750)">
<g id="Group">
<path id="Vector" fill-rule="evenodd" clip-rule="evenodd" d="M18.14 9.20501C18.14 8.56601 18.083 7.95301 17.976 7.36401L9.5 7.36401V10.845H14.344C14.2438 11.3956 14.0329 11.9202 13.7242 12.387C13.4155 12.8538 13.0154 13.2532 12.548 13.561V15.82H15.456C17.158 14.253 18.14 11.945 18.14 9.20501Z" fill="white"/>
<path id="Vector_2" fill-rule="evenodd" clip-rule="evenodd" d="M9.50003 18C11.93 18 13.967 17.194 15.456 15.82L12.548 13.561C11.742 14.101 10.711 14.421 9.50003 14.421C7.15603 14.421 5.17203 12.837 4.46403 10.71H1.45703L1.45703 13.042C2.20608 14.533 3.35497 15.7862 4.77532 16.6618C6.19566 17.5373 7.83151 18.0007 9.50003 18Z" fill="white"/>
<path id="Vector_3" fill-rule="evenodd" clip-rule="evenodd" d="M4.464 10.71C4.27872 10.1589 4.1835 9.58146 4.182 9.00001C4.182 8.40701 4.284 7.83001 4.464 7.29001V4.95801L1.457 4.95801C0.827056 6.21224 0.49932 7.59647 0.500001 9.00001C0.500001 10.452 0.848001 11.827 1.457 13.042L4.464 10.71Z" fill="white"/>
<path id="Vector_4" fill-rule="evenodd" clip-rule="evenodd" d="M9.50003 3.58C10.821 3.58 12.008 4.034 12.94 4.925L15.522 2.345C13.963 0.891001 11.926 7.07085e-07 9.50003 7.07085e-07C7.83151 -0.000660682 6.19566 0.462675 4.77532 1.33823C3.35497 2.21378 2.20608 3.46706 1.45703 4.958L4.46403 7.29C5.17203 5.163 7.15603 3.58 9.50003 3.58Z" fill="white"/>
</g>
</g>
</g>
</g>
</g>
</g>
</g>
</g>
</g>
</g>
<defs>
<clipPath id="clip0_731_750">
<rect width="18" height="18" fill="white" transform="translate(0.5)"/>
</clipPath>
</defs>
</svg>
