<svg width="19" height="18" viewBox="0 0 19 18" fill="none" xmlns="http://www.w3.org/2000/svg">
<g id="Frame" clip-path="url(#clip0_350_8668)">
<g id="Group">
<path id="Vector" fill-rule="evenodd" clip-rule="evenodd" d="M18.599 9.20501C18.599 8.56601 18.542 7.95301 18.435 7.36401L9.95898 7.36401V10.845H14.803C14.7027 11.3956 14.4919 11.9202 14.1832 12.387C13.8745 12.8538 13.4744 13.2532 13.007 13.561V15.82H15.915C17.617 14.253 18.599 11.945 18.599 9.20501Z" fill="#676664"/>
<path id="Vector_2" fill-rule="evenodd" clip-rule="evenodd" d="M9.95902 18C12.389 18 14.426 17.194 15.915 15.82L13.007 13.561C12.201 14.101 11.17 14.421 9.95902 14.421C7.61502 14.421 5.63102 12.837 4.92302 10.71H1.91602L1.91602 13.042C2.66506 14.5329 3.81396 15.7862 5.2343 16.6617C6.65465 17.5373 8.29049 18.0006 9.95902 18Z" fill="#676664"/>
<path id="Vector_3" fill-rule="evenodd" clip-rule="evenodd" d="M4.92299 10.71C4.7377 10.1589 4.64248 9.58146 4.64099 9.00001C4.64099 8.40701 4.74299 7.83001 4.92299 7.29001V4.95801L1.91599 4.95801C1.28604 6.21224 0.958305 7.59647 0.958985 9.00001C0.958985 10.452 1.30699 11.827 1.91599 13.042L4.92299 10.71Z" fill="#676664"/>
<path id="Vector_4" fill-rule="evenodd" clip-rule="evenodd" d="M9.95902 3.58C11.28 3.58 12.467 4.034 13.399 4.925L15.981 2.345C14.422 0.891001 12.385 7.07085e-07 9.95902 7.07085e-07C8.29049 -0.000660682 6.65465 0.462675 5.2343 1.33823C3.81396 2.21378 2.66506 3.46706 1.91602 4.958L4.92302 7.29C5.63102 5.163 7.61502 3.58 9.95902 3.58Z" fill="#676664"/>
</g>
</g>
<defs>
<clipPath id="clip0_350_8668">
<rect width="18" height="18" fill="white" transform="translate(0.958984)"/>
</clipPath>
</defs>
</svg>
