<svg width="80" height="80" viewBox="0 0 80 80" fill="none" xmlns="http://www.w3.org/2000/svg">
<path fill-rule="evenodd" clip-rule="evenodd" d="M32.6652 3.30064C32.2961 3.59084 32.2831 3.65291 32.2831 5.10781V6.61448L31.6667 6.76937C28.3749 7.59631 24.0789 9.50238 21.2611 11.386C15.8394 15.0103 11.4544 20.1757 8.93823 25.9022C6.90511 30.5291 5.99884 34.8499 6 39.9091C6.00319 53.9054 14.3518 66.2396 27.4247 71.562C29.7399 72.5047 30.8338 72.4541 31.8765 71.3564C32.9742 70.2008 32.9706 68.472 31.8683 67.3851C31.5299 67.0514 30.8979 66.6909 30.1077 66.3807C28.3455 65.6891 26.1704 64.5867 24.7417 63.6615C14.273 56.8812 9.46844 44.1426 12.8448 32.1185C15.1958 23.7455 21.3559 16.8929 29.5058 13.584C30.4594 13.1969 31.4742 12.8362 31.7613 12.7823L32.2831 12.6844V14.2128C32.2831 15.6912 32.2955 15.7511 32.6652 16.0418C32.8753 16.2071 33.1916 16.3424 33.3681 16.3424C33.5446 16.3424 34.89 15.6512 36.3578 14.8063C37.8258 13.9615 40.0057 12.7112 41.2022 12.0282C43.85 10.5163 44.0302 10.366 44.0302 9.67119C44.0302 8.99262 43.8255 8.8125 41.6372 7.56382C40.6801 7.01765 38.5006 5.76724 36.7941 4.78541C35.0874 3.80344 33.5464 3 33.3693 3C33.1922 3 32.8753 3.13531 32.6652 3.30064ZM49.1786 7.73684C47.3153 8.7191 46.9587 10.9373 48.436 12.3542C48.7993 12.7027 49.358 13.0423 49.8348 13.2049C50.2715 13.3537 51.4772 13.8855 52.5142 14.3867C60.9833 18.4796 66.7565 26.3879 68.1816 35.8484C68.4962 37.9359 68.5043 41.8661 68.1983 43.8486C66.9183 52.1415 62.4197 59.1426 55.4563 63.6792C53.9514 64.6595 51.1227 66.0389 49.3599 66.652L48.0909 67.0934V65.7101C48.0909 63.9564 47.7898 63.3414 46.9307 63.3391C46.7218 63.3385 44.418 64.5814 41.4957 66.2712C37.3326 68.6785 36.3982 69.2759 36.283 69.6032C35.9629 70.5132 36.0576 70.5882 41.4957 73.7328C44.418 75.4226 46.7218 76.6655 46.9307 76.6649C47.7784 76.6626 48.0909 76.0438 48.0909 74.3679V73.0587L48.7072 72.9031C52.5542 71.9313 57.0013 69.8188 60.3058 67.3934C69.6413 60.5415 74.8651 49.4302 74.1853 37.8713C74.0488 35.5528 73.9009 34.5044 73.3812 32.1723C71.2044 22.4045 64.4154 13.7962 55.3439 9.30138C51.8623 7.57629 50.2563 7.16863 49.1786 7.73684Z" fill="#21AB68"/>
<path fill-rule="evenodd" clip-rule="evenodd" d="M24.1279 23.8838C23.8415 24.1702 23.8379 24.3672 23.8379 39.8367C23.8379 55.3061 23.8415 55.5031 24.1279 55.7895C24.4144 56.0759 24.6113 56.0796 40.0808 56.0796C55.5503 56.0796 55.7472 56.0759 56.0337 55.7895C56.3201 55.5031 56.3237 55.3061 56.3237 39.8367C56.3237 24.3672 56.3201 24.1702 56.0337 23.8838C55.7472 23.5974 55.5503 23.5938 40.0808 23.5938C24.6113 23.5938 24.4144 23.5974 24.1279 23.8838ZM49.6547 31.1714C50.4268 31.5626 50.8613 32.2489 50.8603 33.0753C50.8591 34.0265 50.5 34.5159 49.0998 35.475C45.7761 37.7515 43.8065 40.1857 40.6728 45.8903C40.0925 46.9466 39.4253 47.9728 39.1901 48.1707C38.385 48.8481 37.2715 48.9543 36.2805 48.448C36.0649 48.3378 34.45 46.7061 32.6919 44.8219C29.1531 41.0292 28.9995 40.7882 29.4331 39.7045C29.752 38.9075 30.4617 38.472 31.2896 38.5654C31.764 38.6187 32.4437 38.9872 34.2422 40.1657L36.5784 41.6966L36.9748 41.0929C39.7079 36.9296 43.9937 32.9437 47.5496 31.2578C48.5996 30.7599 48.8249 30.7508 49.6547 31.1714Z" fill="#CCC8A4"/>
</svg>
