<svg width="150" height="38" viewBox="0 0 150 38" fill="none" xmlns="http://www.w3.org/2000/svg">
<path d="M8 25.136V8.336H14.912C15.968 8.336 16.896 8.552 17.696 8.984C18.512 9.4 19.144 9.992 19.592 10.76C20.056 11.528 20.288 12.44 20.288 13.496V13.832C20.288 14.872 20.048 15.784 19.568 16.568C19.104 17.336 18.464 17.936 17.648 18.368C16.848 18.784 15.936 18.992 14.912 18.992H11.168V25.136H8ZM11.168 16.112H14.6C15.352 16.112 15.96 15.904 16.424 15.488C16.888 15.072 17.12 14.504 17.12 13.784V13.544C17.12 12.824 16.888 12.256 16.424 11.84C15.96 11.424 15.352 11.216 14.6 11.216H11.168V16.112Z" fill="#21AB68"/>
<path d="M21.5244 25.136V8.336H28.4364C29.4924 8.336 30.4204 8.552 31.2204 8.984C32.0364 9.4 32.6684 9.992 33.1164 10.76C33.5804 11.528 33.8124 12.44 33.8124 13.496V13.832C33.8124 14.872 33.5724 15.784 33.0924 16.568C32.6284 17.336 31.9884 17.936 31.1724 18.368C30.3724 18.784 29.4604 18.992 28.4364 18.992H24.6924V25.136H21.5244ZM24.6924 16.112H28.1244C28.8764 16.112 29.4844 15.904 29.9484 15.488C30.4124 15.072 30.6444 14.504 30.6444 13.784V13.544C30.6444 12.824 30.4124 12.256 29.9484 11.84C29.4844 11.424 28.8764 11.216 28.1244 11.216H24.6924V16.112Z" fill="#21AB68"/>
<path d="M38.8899 25.136V11.216H33.9939V8.336H46.9539V11.216H42.0579V25.136H38.8899Z" fill="#21AB68"/>
<path d="M47.6712 25.136V22.352H49.8792V11.12H47.6712V8.336H54.5832C56.8392 8.336 58.5513 8.912 59.7192 10.064C60.9033 11.2 61.4953 12.896 61.4953 15.152V18.32C61.4953 20.576 60.9033 22.28 59.7192 23.432C58.5513 24.568 56.8392 25.136 54.5832 25.136H47.6712ZM53.0472 22.256H54.6312C55.9112 22.256 56.8473 21.92 57.4393 21.248C58.0312 20.576 58.3272 19.632 58.3272 18.416V15.056C58.3272 13.824 58.0312 12.88 57.4393 12.224C56.8473 11.552 55.9112 11.216 54.6312 11.216H53.0472V22.256Z" fill="#21AB68"/>
<path d="M68.6956 25.472C67.5116 25.472 66.4636 25.224 65.5516 24.728C64.6556 24.216 63.9516 23.504 63.4396 22.592C62.9436 21.664 62.6956 20.576 62.6956 19.328V19.04C62.6956 17.792 62.9436 16.712 63.4396 15.8C63.9356 14.872 64.6316 14.16 65.5276 13.664C66.4236 13.152 67.4636 12.896 68.6476 12.896C69.8156 12.896 70.8316 13.16 71.6956 13.688C72.5596 14.2 73.2316 14.92 73.7116 15.848C74.1916 16.76 74.4316 17.824 74.4316 19.04V20.072H65.7676C65.7996 20.888 66.1036 21.552 66.6796 22.064C67.2556 22.576 67.9596 22.832 68.7916 22.832C69.6396 22.832 70.2636 22.648 70.6636 22.28C71.0636 21.912 71.3676 21.504 71.5756 21.056L74.0476 22.352C73.8236 22.768 73.4956 23.224 73.0636 23.72C72.6476 24.2 72.0876 24.616 71.3836 24.968C70.6796 25.304 69.7836 25.472 68.6956 25.472ZM65.7916 17.816H71.3596C71.2956 17.128 71.0156 16.576 70.5196 16.16C70.0396 15.744 69.4076 15.536 68.6236 15.536C67.8076 15.536 67.1596 15.744 66.6796 16.16C66.1996 16.576 65.9036 17.128 65.7916 17.816Z" fill="#21AB68"/>
<path d="M81.1072 25.472C79.5552 25.472 78.2832 25.136 77.2912 24.464C76.2992 23.792 75.6992 22.832 75.4912 21.584L78.2752 20.864C78.3872 21.424 78.5712 21.864 78.8272 22.184C79.0992 22.504 79.4272 22.736 79.8112 22.88C80.2112 23.008 80.6432 23.072 81.1072 23.072C81.8112 23.072 82.3312 22.952 82.6672 22.712C83.0032 22.456 83.1712 22.144 83.1712 21.776C83.1712 21.408 83.0112 21.128 82.6912 20.936C82.3712 20.728 81.8592 20.56 81.1552 20.432L80.4832 20.312C79.6512 20.152 78.8912 19.936 78.2032 19.664C77.5152 19.376 76.9632 18.984 76.5472 18.488C76.1312 17.992 75.9232 17.352 75.9232 16.568C75.9232 15.384 76.3552 14.48 77.2192 13.856C78.0832 13.216 79.2192 12.896 80.6272 12.896C81.9552 12.896 83.0592 13.192 83.9392 13.784C84.8192 14.376 85.3952 15.152 85.6672 16.112L82.8592 16.976C82.7312 16.368 82.4672 15.936 82.0672 15.68C81.6832 15.424 81.2032 15.296 80.6272 15.296C80.0512 15.296 79.6112 15.4 79.3072 15.608C79.0032 15.8 78.8512 16.072 78.8512 16.424C78.8512 16.808 79.0112 17.096 79.3312 17.288C79.6512 17.464 80.0832 17.6 80.6272 17.696L81.2992 17.816C82.1952 17.976 83.0032 18.192 83.7232 18.464C84.4592 18.72 85.0352 19.096 85.4512 19.592C85.8832 20.072 86.0992 20.728 86.0992 21.56C86.0992 22.808 85.6432 23.776 84.7312 24.464C83.8352 25.136 82.6272 25.472 81.1072 25.472Z" fill="#21AB68"/>
<path d="M87.7891 25.136V13.232H90.8131V25.136H87.7891ZM89.3011 11.84C88.7571 11.84 88.2931 11.664 87.9091 11.312C87.5411 10.96 87.3571 10.496 87.3571 9.92C87.3571 9.344 87.5411 8.88 87.9091 8.528C88.2931 8.176 88.7571 8 89.3011 8C89.8611 8 90.3251 8.176 90.6931 8.528C91.0611 8.88 91.2451 9.344 91.2451 9.92C91.2451 10.496 91.0611 10.96 90.6931 11.312C90.3251 11.664 89.8611 11.84 89.3011 11.84Z" fill="#21AB68"/>
<path d="M92.6281 19.232V18.848C92.6281 17.6 92.8761 16.536 93.3721 15.656C93.8681 14.76 94.5241 14.08 95.3401 13.616C96.1721 13.136 97.0761 12.896 98.0521 12.896C99.1401 12.896 99.9641 13.088 100.524 13.472C101.084 13.856 101.492 14.256 101.748 14.672H102.18V13.232H105.156V27.248C105.156 28.064 104.916 28.712 104.436 29.192C103.956 29.688 103.316 29.936 102.516 29.936H94.5481V27.296H101.46C101.908 27.296 102.132 27.056 102.132 26.576V23.48H101.7C101.54 23.736 101.316 24 101.028 24.272C100.74 24.528 100.356 24.744 99.8761 24.92C99.3961 25.096 98.7881 25.184 98.0521 25.184C97.0761 25.184 96.1721 24.952 95.3401 24.488C94.5241 24.008 93.8681 23.328 93.3721 22.448C92.8761 21.552 92.6281 20.48 92.6281 19.232ZM98.9161 22.544C99.8441 22.544 100.62 22.248 101.244 21.656C101.868 21.064 102.18 20.232 102.18 19.16V18.92C102.18 17.832 101.868 17 101.244 16.424C100.636 15.832 99.8601 15.536 98.9161 15.536C97.9881 15.536 97.2121 15.832 96.5881 16.424C95.9641 17 95.6521 17.832 95.6521 18.92V19.16C95.6521 20.232 95.9641 21.064 96.5881 21.656C97.2121 22.248 97.9881 22.544 98.9161 22.544Z" fill="#21AB68"/>
<path d="M107.549 25.136V13.232H110.525V14.792H110.957C111.149 14.376 111.509 13.984 112.037 13.616C112.565 13.232 113.365 13.04 114.437 13.04C115.365 13.04 116.173 13.256 116.861 13.688C117.565 14.104 118.109 14.688 118.493 15.44C118.877 16.176 119.069 17.04 119.069 18.032V25.136H116.045V18.272C116.045 17.376 115.821 16.704 115.373 16.256C114.941 15.808 114.317 15.584 113.501 15.584C112.573 15.584 111.853 15.896 111.341 16.52C110.829 17.128 110.573 17.984 110.573 19.088V25.136H107.549Z" fill="#21AB68"/>
<path d="M126.802 25.472C125.618 25.472 124.57 25.224 123.658 24.728C122.762 24.216 122.058 23.504 121.546 22.592C121.05 21.664 120.802 20.576 120.802 19.328V19.04C120.802 17.792 121.05 16.712 121.546 15.8C122.042 14.872 122.738 14.16 123.634 13.664C124.53 13.152 125.57 12.896 126.754 12.896C127.922 12.896 128.938 13.16 129.802 13.688C130.666 14.2 131.338 14.92 131.818 15.848C132.298 16.76 132.538 17.824 132.538 19.04V20.072H123.874C123.906 20.888 124.21 21.552 124.786 22.064C125.362 22.576 126.066 22.832 126.898 22.832C127.746 22.832 128.37 22.648 128.77 22.28C129.17 21.912 129.474 21.504 129.682 21.056L132.154 22.352C131.93 22.768 131.602 23.224 131.17 23.72C130.754 24.2 130.194 24.616 129.49 24.968C128.786 25.304 127.89 25.472 126.802 25.472ZM123.898 17.816H129.466C129.402 17.128 129.122 16.576 128.626 16.16C128.146 15.744 127.514 15.536 126.73 15.536C125.914 15.536 125.266 15.744 124.786 16.16C124.306 16.576 124.01 17.128 123.898 17.816Z" fill="#21AB68"/>
<path d="M134.269 25.136V13.232H137.245V14.576H137.677C137.853 14.096 138.141 13.744 138.541 13.52C138.957 13.296 139.437 13.184 139.981 13.184H141.421V15.872H139.933C139.165 15.872 138.533 16.08 138.037 16.496C137.541 16.896 137.293 17.52 137.293 18.368V25.136H134.269Z" fill="#21AB68"/>
</svg>
