<svg width="146" height="20" viewBox="0 0 146 20" fill="none" xmlns="http://www.w3.org/2000/svg">
<g clip-path="url(#clip0_1034_1680)">
<path d="M2.35474 14.6478V1.27235H6.40506C7.47259 1.27235 8.38312 1.44818 9.13667 1.79984C9.90278 2.15149 10.4868 2.65386 10.8887 3.30693C11.3031 3.96001 11.5103 4.75123 11.5103 5.68061C11.5103 6.55975 11.2968 7.33214 10.8698 7.99777C10.4428 8.65085 9.83998 9.15949 9.06132 9.52371C8.28265 9.87536 7.36583 10.0512 6.31086 10.0512C6.05968 10.0512 5.78966 10.0386 5.5008 10.0135C5.2245 9.9884 4.92936 9.957 4.61538 9.91932V14.6478H2.35474ZM4.61538 3.26926V7.92242C4.89168 7.96009 5.16798 7.99149 5.44428 8.01661C5.72059 8.04173 5.97805 8.05429 6.21667 8.05429C7.17117 8.05429 7.8996 7.84706 8.40196 7.43261C8.91689 7.01816 9.17435 6.42788 9.17435 5.66177C9.17435 4.90822 8.92945 4.32422 8.43964 3.90977C7.94983 3.48276 7.25908 3.26926 6.36738 3.26926H4.61538Z" fill="#061F13"/>
<path d="M15.041 2.04474C15.041 2.28336 14.9782 2.50315 14.8526 2.70409C14.7396 2.90504 14.5826 3.06831 14.3816 3.1939C14.1807 3.30693 13.9609 3.36345 13.7223 3.36345C13.4837 3.36345 13.2639 3.30693 13.0629 3.1939C12.862 3.06831 12.6987 2.90504 12.5731 2.70409C12.4601 2.50315 12.4036 2.28336 12.4036 2.04474C12.4036 1.80612 12.4601 1.58633 12.5731 1.38538C12.6987 1.18444 12.862 1.02745 13.0629 0.914416C13.2639 0.788825 13.4837 0.726029 13.7223 0.726029C13.9609 0.726029 14.1807 0.788825 14.3816 0.914416C14.5826 1.02745 14.7396 1.18444 14.8526 1.38538C14.9782 1.58633 15.041 1.80612 15.041 2.04474ZM12.6485 14.6478V4.79519H14.8149V14.6478H12.6485Z" fill="#061F13"/>
<path d="M20.6127 14.9304C19.6205 14.9304 18.8418 14.6478 18.2767 14.0827C17.7115 13.505 17.4289 12.6823 17.4289 11.6148V6.54719H15.6958V4.79519H17.4289V1.46074H19.5954V4.79519H22.4589V6.54719H19.5954V11.3887C19.5954 11.9162 19.7021 12.3244 19.9157 12.6133C20.1417 12.8896 20.4683 13.0277 20.8953 13.0277C21.1213 13.0277 21.3662 12.9963 21.63 12.9335C21.8937 12.8582 22.1386 12.7577 22.3647 12.6321L22.8545 14.2711C22.5656 14.472 22.2265 14.629 21.8372 14.742C21.4604 14.8676 21.0523 14.9304 20.6127 14.9304Z" fill="#061F13"/>
<path d="M28.2144 14.9304C27.5111 14.9304 26.8643 14.8048 26.274 14.5536C25.6837 14.2899 25.1688 13.932 24.7292 13.4798C24.2897 13.0151 23.9443 12.4688 23.6931 11.8409C23.4545 11.2129 23.3352 10.5284 23.3352 9.78745C23.3352 9.04646 23.4608 8.35571 23.7119 7.71519C23.9631 7.07467 24.3085 6.51579 24.7481 6.03855C25.1876 5.5613 25.7026 5.1908 26.2928 4.92706C26.8957 4.65076 27.5488 4.51261 28.2521 4.51261C28.9303 4.51261 29.5519 4.6382 30.1171 4.88938C30.6823 5.12801 31.1658 5.47338 31.5677 5.92551C31.9821 6.36508 32.2773 6.88629 32.4531 7.48913L30.3997 7.97893C30.1862 7.50169 29.8848 7.13119 29.4954 6.86745C29.1187 6.60371 28.6916 6.47184 28.2144 6.47184C27.712 6.47184 27.2599 6.61627 26.858 6.90513C26.4561 7.19399 26.1359 7.5896 25.8972 8.09197C25.6712 8.58177 25.5581 9.14065 25.5581 9.76861C25.5581 10.384 25.6712 10.9366 25.8972 11.4264C26.1233 11.9037 26.431 12.2804 26.8203 12.5567C27.2222 12.833 27.6869 12.9712 28.2144 12.9712C28.7168 12.9712 29.1752 12.8456 29.5896 12.5944C30.0041 12.3307 30.3118 11.9602 30.5127 11.4829L32.5473 11.9539C32.3715 12.5567 32.0701 13.0842 31.643 13.5364C31.216 13.9759 30.7074 14.3213 30.1171 14.5725C29.5268 14.8111 28.8926 14.9304 28.2144 14.9304Z" fill="#061F13"/>
<path d="M33.7162 14.6478V0.631836H35.8826V5.98203C36.1841 5.5299 36.5859 5.17196 37.0883 4.90822C37.5907 4.64448 38.1558 4.51261 38.7838 4.51261C39.5248 4.51261 40.1653 4.68844 40.7053 5.04009C41.2579 5.39175 41.685 5.88784 41.9864 6.52835C42.2878 7.16887 42.4385 7.92242 42.4385 8.789V14.6478H40.2721V9.0339C40.2721 8.23012 40.0899 7.60216 39.7257 7.15003C39.3741 6.6979 38.878 6.47184 38.2375 6.47184C37.7853 6.47184 37.3772 6.57859 37.013 6.79209C36.6613 7.0056 36.385 7.29446 36.1841 7.65867C35.9831 8.02289 35.8826 8.44362 35.8826 8.92087V14.6478H33.7162Z" fill="#061F13"/>
<path d="M48.324 14.9304C47.6709 14.9304 47.0618 14.7985 46.4966 14.5348C45.944 14.2711 45.4605 13.9068 45.046 13.4422C44.6316 12.9775 44.3051 12.4311 44.0664 11.8032C43.8404 11.1752 43.7273 10.497 43.7273 9.76861C43.7273 9.02762 43.8466 8.33687 44.0853 7.69635C44.3239 7.05584 44.6567 6.49695 45.0837 6.01971C45.5107 5.54246 46.0068 5.17196 46.572 4.90822C47.1497 4.64448 47.7714 4.51261 48.437 4.51261C49.0901 4.51261 49.6866 4.65076 50.2267 4.92706C50.7667 5.20336 51.2126 5.5927 51.5642 6.09506V0.631836H53.7307V14.6478H51.7526L51.6584 13.0654C51.3068 13.6431 50.8421 14.1015 50.2644 14.4406C49.6866 14.7671 49.0399 14.9304 48.324 14.9304ZM48.7761 12.9712C49.3162 12.9712 49.7997 12.833 50.2267 12.5567C50.6537 12.2679 50.9865 11.8785 51.2251 11.3887C51.4763 10.8989 51.6019 10.3463 51.6019 9.73093C51.6019 9.10298 51.4763 8.54409 51.2251 8.05429C50.9865 7.56448 50.6537 7.18143 50.2267 6.90513C49.7997 6.61627 49.3162 6.47184 48.7761 6.47184C48.2361 6.47184 47.7525 6.61627 47.3255 6.90513C46.8985 7.18143 46.5594 7.56448 46.3082 8.05429C46.0696 8.54409 45.9503 9.10298 45.9503 9.73093C45.9503 10.3463 46.0696 10.8989 46.3082 11.3887C46.5594 11.8785 46.8985 12.2679 47.3255 12.5567C47.7525 12.833 48.2361 12.9712 48.7761 12.9712Z" fill="#061F13"/>
<path d="M60.0291 14.9304C59.3007 14.9304 58.6288 14.8048 58.0134 14.5536C57.4106 14.2899 56.8831 13.9257 56.431 13.461C55.9788 12.9963 55.6272 12.45 55.376 11.822C55.1374 11.1815 55.0181 10.4782 55.0181 9.71209C55.0181 8.9711 55.1374 8.28663 55.376 7.65867C55.6272 7.03072 55.9663 6.48439 56.3933 6.01971C56.8328 5.54246 57.3478 5.17196 57.938 4.90822C58.5283 4.64448 59.1688 4.51261 59.8596 4.51261C60.5504 4.51261 61.1783 4.6382 61.7435 4.88938C62.3212 5.12801 62.8173 5.47338 63.2317 5.92551C63.6587 6.37764 63.9853 6.91769 64.2113 7.54564C64.4374 8.16104 64.5504 8.84551 64.5504 9.59906V10.2396H57.2599C57.3227 10.8173 57.4734 11.3197 57.712 11.7467C57.9632 12.1611 58.2834 12.4814 58.6728 12.7074C59.0621 12.9335 59.5142 13.0465 60.0291 13.0465C61.059 13.0465 61.8628 12.5881 62.4405 11.6713L64.3432 12.406C64.1171 12.921 63.7843 13.3731 63.3448 13.7624C62.9177 14.1392 62.4154 14.4281 61.8377 14.629C61.2725 14.8299 60.6697 14.9304 60.0291 14.9304ZM59.8596 6.26461C59.42 6.26461 59.0244 6.36508 58.6728 6.56603C58.3337 6.76698 58.0448 7.04956 57.8062 7.41377C57.5676 7.77799 57.4043 8.205 57.3164 8.6948H62.2898C62.2144 8.205 62.07 7.77799 61.8565 7.41377C61.643 7.04956 61.3604 6.76698 61.0088 6.56603C60.6697 6.36508 60.2866 6.26461 59.8596 6.26461Z" fill="#061F13"/>
<path d="M70.3233 14.9304C69.62 14.9304 68.9732 14.8048 68.3829 14.5536C67.7927 14.2899 67.2777 13.932 66.8382 13.4798C66.3986 13.0151 66.0532 12.4688 65.802 11.8409C65.5634 11.2129 65.4441 10.5284 65.4441 9.78745C65.4441 9.04646 65.5697 8.35571 65.8209 7.71519C66.0721 7.07467 66.4174 6.51579 66.857 6.03855C67.2966 5.5613 67.8115 5.1908 68.4018 4.92706C69.0046 4.65076 69.6577 4.51261 70.361 4.51261C71.0392 4.51261 71.6609 4.6382 72.226 4.88938C72.7912 5.12801 73.2747 5.47338 73.6766 5.92551C74.0911 6.36508 74.3862 6.88629 74.562 7.48913L72.5086 7.97893C72.2951 7.50169 71.9937 7.13119 71.6044 6.86745C71.2276 6.60371 70.8006 6.47184 70.3233 6.47184C69.821 6.47184 69.3688 6.61627 68.9669 6.90513C68.565 7.19399 68.2448 7.5896 68.0062 8.09197C67.7801 8.58177 67.6671 9.14065 67.6671 9.76861C67.6671 10.384 67.7801 10.9366 68.0062 11.4264C68.2322 11.9037 68.5399 12.2804 68.9293 12.5567C69.3312 12.833 69.7958 12.9712 70.3233 12.9712C70.8257 12.9712 71.2841 12.8456 71.6985 12.5944C72.113 12.3307 72.4207 11.9602 72.6216 11.4829L74.6562 11.9539C74.4804 12.5567 74.179 13.0842 73.752 13.5364C73.325 13.9759 72.8163 14.3213 72.226 14.5725C71.6358 14.8111 71.0015 14.9304 70.3233 14.9304Z" fill="#061F13"/>
<path d="M75.8251 14.6478V0.631836H77.9916V8.86435L82.023 4.79519H84.6605L80.2334 9.16577L85.1126 14.6478H82.268L77.9916 9.67442V14.6478H75.8251Z" fill="#061F13"/>
<path d="M86.9973 14.7232C86.7336 14.7232 86.495 14.6604 86.2815 14.5348C86.068 14.4092 85.8921 14.2397 85.754 14.0262C85.6284 13.8001 85.5656 13.5552 85.5656 13.2914C85.5656 13.0277 85.6284 12.7891 85.754 12.5756C85.8921 12.3495 86.068 12.1737 86.2815 12.0481C86.495 11.9225 86.7336 11.8597 86.9973 11.8597C87.2611 11.8597 87.4997 11.9225 87.7132 12.0481C87.9267 12.1737 88.0963 12.3495 88.2219 12.5756C88.36 12.7891 88.4291 13.0277 88.4291 13.2914C88.4291 13.5552 88.36 13.8001 88.2219 14.0262C88.0963 14.2397 87.9267 14.4092 87.7132 14.5348C87.4997 14.6604 87.2611 14.7232 86.9973 14.7232Z" fill="#061F13"/>
<path d="M93.8312 14.9304C93.1782 14.9304 92.569 14.7985 92.0039 14.5348C91.4513 14.2711 90.9678 13.9068 90.5533 13.4422C90.1388 12.9775 89.8123 12.4311 89.5737 11.8032C89.3476 11.1752 89.2346 10.497 89.2346 9.76861C89.2346 9.02762 89.3539 8.33687 89.5925 7.69635C89.8312 7.05584 90.164 6.49695 90.591 6.01971C91.018 5.54246 91.5141 5.17196 92.0792 4.90822C92.657 4.64448 93.2786 4.51261 93.9443 4.51261C94.5973 4.51261 95.1939 4.65076 95.7339 4.92706C96.274 5.20336 96.7198 5.5927 97.0715 6.09506V0.631836H99.2379V14.6478H97.2599L97.1657 13.0654C96.814 13.6431 96.3493 14.1015 95.7716 14.4406C95.1939 14.7671 94.5471 14.9304 93.8312 14.9304ZM94.2834 12.9712C94.8234 12.9712 95.3069 12.833 95.7339 12.5567C96.161 12.2679 96.4938 11.8785 96.7324 11.3887C96.9836 10.8989 97.1092 10.3463 97.1092 9.73093C97.1092 9.10298 96.9836 8.54409 96.7324 8.05429C96.4938 7.56448 96.161 7.18143 95.7339 6.90513C95.3069 6.61627 94.8234 6.47184 94.2834 6.47184C93.7433 6.47184 93.2598 6.61627 92.8328 6.90513C92.4058 7.18143 92.0667 7.56448 91.8155 8.05429C91.5769 8.54409 91.4576 9.10298 91.4576 9.73093C91.4576 10.3463 91.5769 10.8989 91.8155 11.3887C92.0667 11.8785 92.4058 12.2679 92.8328 12.5567C93.2598 12.833 93.7433 12.9712 94.2834 12.9712Z" fill="#061F13"/>
<path d="M105.536 14.9304C104.808 14.9304 104.136 14.8048 103.521 14.5536C102.918 14.2899 102.39 13.9257 101.938 13.461C101.486 12.9963 101.134 12.45 100.883 11.822C100.645 11.1815 100.525 10.4782 100.525 9.71209C100.525 8.9711 100.645 8.28663 100.883 7.65867C101.134 7.03072 101.474 6.48439 101.901 6.01971C102.34 5.54246 102.855 5.17196 103.445 4.90822C104.036 4.64448 104.676 4.51261 105.367 4.51261C106.058 4.51261 106.686 4.6382 107.251 4.88938C107.828 5.12801 108.325 5.47338 108.739 5.92551C109.166 6.37764 109.493 6.91769 109.719 7.54564C109.945 8.16104 110.058 8.84551 110.058 9.59906V10.2396H102.767C102.83 10.8173 102.981 11.3197 103.219 11.7467C103.47 12.1611 103.791 12.4814 104.18 12.7074C104.569 12.9335 105.021 13.0465 105.536 13.0465C106.566 13.0465 107.37 12.5881 107.948 11.6713L109.85 12.406C109.624 12.921 109.292 13.3731 108.852 13.7624C108.425 14.1392 107.923 14.4281 107.345 14.629C106.78 14.8299 106.177 14.9304 105.536 14.9304ZM105.367 6.26461C104.927 6.26461 104.532 6.36508 104.18 6.56603C103.841 6.76698 103.552 7.04956 103.313 7.41377C103.075 7.77799 102.912 8.205 102.824 8.6948H107.797C107.722 8.205 107.577 7.77799 107.364 7.41377C107.15 7.04956 106.868 6.76698 106.516 6.56603C106.177 6.36508 105.794 6.26461 105.367 6.26461Z" fill="#061F13"/>
<path d="M114.738 14.9304C114.098 14.9304 113.501 14.8237 112.949 14.6102C112.409 14.3967 111.944 14.0952 111.555 13.7059C111.178 13.304 110.908 12.833 110.745 12.293L112.704 11.7844C112.867 12.2114 113.131 12.5442 113.495 12.7828C113.859 13.0214 114.28 13.1407 114.757 13.1407C115.247 13.1407 115.649 13.0277 115.963 12.8016C116.277 12.563 116.434 12.2616 116.434 11.8974C116.434 11.5834 116.308 11.3197 116.057 11.1062C115.806 10.8927 115.398 10.7357 114.833 10.6352L114.211 10.5222C113.156 10.3338 112.358 9.99467 111.818 9.50487C111.291 9.01506 111.027 8.38711 111.027 7.621C111.027 7.0056 111.184 6.46556 111.498 6.00087C111.812 5.53618 112.245 5.17196 112.798 4.90822C113.351 4.64448 113.985 4.51261 114.701 4.51261C115.316 4.51261 115.881 4.61936 116.396 4.83287C116.911 5.04637 117.344 5.34779 117.696 5.73713C118.048 6.12646 118.299 6.58487 118.45 7.11235L116.509 7.58332C116.359 7.18143 116.12 6.86745 115.793 6.64138C115.479 6.40276 115.109 6.28345 114.682 6.28345C114.242 6.28345 113.878 6.39648 113.589 6.62255C113.3 6.83605 113.156 7.11235 113.156 7.45145C113.156 7.74031 113.282 7.97893 113.533 8.16732C113.796 8.35571 114.236 8.50642 114.851 8.61945L115.473 8.73248C116.478 8.90831 117.25 9.25369 117.79 9.76861C118.33 10.2835 118.6 10.9241 118.6 11.6902C118.6 12.1548 118.506 12.5881 118.318 12.99C118.129 13.3794 117.859 13.7247 117.508 14.0262C117.169 14.315 116.76 14.5348 116.283 14.6855C115.818 14.8488 115.304 14.9304 114.738 14.9304Z" fill="#061F13"/>
<path d="M122.161 2.04474C122.161 2.28336 122.098 2.50315 121.973 2.70409C121.86 2.90504 121.703 3.06831 121.502 3.1939C121.301 3.30693 121.081 3.36345 120.842 3.36345C120.604 3.36345 120.384 3.30693 120.183 3.1939C119.982 3.06831 119.819 2.90504 119.693 2.70409C119.58 2.50315 119.524 2.28336 119.524 2.04474C119.524 1.80612 119.58 1.58633 119.693 1.38538C119.819 1.18444 119.982 1.02745 120.183 0.914416C120.384 0.788825 120.604 0.726029 120.842 0.726029C121.081 0.726029 121.301 0.788825 121.502 0.914416C121.703 1.02745 121.86 1.18444 121.973 1.38538C122.098 1.58633 122.161 1.80612 122.161 2.04474ZM119.769 14.6478V4.79519H121.935V14.6478H119.769Z" fill="#061F13"/>
<path d="M127.77 14.4594C127.13 14.4594 126.533 14.3339 125.981 14.0827C125.428 13.8315 124.945 13.4861 124.53 13.0465C124.116 12.5944 123.796 12.0732 123.569 11.4829C123.343 10.8801 123.23 10.227 123.23 9.52371C123.23 8.8204 123.343 8.16732 123.569 7.56448C123.808 6.94908 124.141 6.41532 124.568 5.96319C124.995 5.51106 125.491 5.15941 126.056 4.90822C126.621 4.64448 127.23 4.51261 127.884 4.51261C128.562 4.51261 129.177 4.66332 129.73 4.96474C130.295 5.2536 130.747 5.66177 131.086 6.18925L131.161 4.79519H133.14V13.6117C133.14 14.3653 133.02 15.0497 132.782 15.6651C132.543 16.2931 132.204 16.8268 131.764 17.2664C131.325 17.7185 130.797 18.0639 130.182 18.3025C129.579 18.5412 128.901 18.6605 128.147 18.6605C127.143 18.6605 126.263 18.4344 125.51 17.9823C124.756 17.5302 124.166 16.9022 123.739 16.0984L125.792 15.3825C126.069 15.8347 126.414 16.1738 126.829 16.3998C127.243 16.6385 127.708 16.7578 128.223 16.7578C128.775 16.7578 129.259 16.6322 129.673 16.381C130.088 16.1424 130.408 15.797 130.634 15.3449C130.86 14.9053 130.973 14.3841 130.973 13.7813V12.8393C130.621 13.3417 130.169 13.7373 129.617 14.0262C129.064 14.315 128.449 14.4594 127.77 14.4594ZM128.223 12.5002C128.75 12.5002 129.221 12.3684 129.636 12.1046C130.063 11.8409 130.395 11.4829 130.634 11.0308C130.885 10.5787 131.011 10.0637 131.011 9.48603C131.011 8.90831 130.885 8.39338 130.634 7.94126C130.395 7.48913 130.063 7.13119 129.636 6.86745C129.221 6.60371 128.75 6.47184 128.223 6.47184C127.695 6.47184 127.224 6.60371 126.81 6.86745C126.395 7.13119 126.062 7.48913 125.811 7.94126C125.573 8.39338 125.453 8.90831 125.453 9.48603C125.453 10.0637 125.573 10.5787 125.811 11.0308C126.062 11.4829 126.395 11.8409 126.81 12.1046C127.224 12.3684 127.695 12.5002 128.223 12.5002Z" fill="#061F13"/>
<path d="M134.862 14.6478V4.79519H136.84L136.916 6.15158C137.205 5.64921 137.607 5.2536 138.121 4.96474C138.649 4.66332 139.252 4.51261 139.93 4.51261C140.671 4.51261 141.311 4.68844 141.852 5.04009C142.404 5.39175 142.831 5.88784 143.133 6.52835C143.434 7.16887 143.585 7.92242 143.585 8.789V14.6478H141.418V9.0339C141.418 8.23012 141.236 7.60216 140.872 7.15003C140.52 6.6979 140.024 6.47184 139.384 6.47184C138.932 6.47184 138.523 6.57859 138.159 6.79209C137.807 7.0056 137.531 7.29446 137.33 7.65867C137.129 8.02289 137.029 8.44362 137.029 8.92087V14.6478H134.862Z" fill="#061F13"/>
</g>
<defs>
<clipPath id="clip0_1034_1680">
<rect width="146" height="18.8387" fill="white" transform="translate(0 0.580566)"/>
</clipPath>
</defs>
</svg>
