<svg width="224" height="32" viewBox="0 0 224 32" fill="none" xmlns="http://www.w3.org/2000/svg">
<path d="M42.6797 22.856V5.816H47.8397C49.1997 5.816 50.3597 6.04 51.3197 6.488C52.2957 6.936 53.0397 7.576 53.5517 8.408C54.0797 9.24 54.3437 10.248 54.3437 11.432C54.3437 12.552 54.0717 13.536 53.5277 14.384C52.9837 15.216 52.2157 15.864 51.2237 16.328C50.2317 16.776 49.0637 17 47.7197 17C47.3997 17 47.0557 16.984 46.6877 16.952C46.3357 16.92 45.9597 16.88 45.5597 16.832V22.856H42.6797ZM45.5597 8.36V14.288C45.9117 14.336 46.2637 14.376 46.6157 14.408C46.9677 14.44 47.2957 14.456 47.5997 14.456C48.8157 14.456 49.7437 14.192 50.3837 13.664C51.0397 13.136 51.3677 12.384 51.3677 11.408C51.3677 10.448 51.0557 9.704 50.4317 9.176C49.8077 8.632 48.9277 8.36 47.7917 8.36H45.5597Z" fill="#08693A"/>
<path d="M58.9016 6.8C58.9016 7.104 58.8216 7.384 58.6616 7.64C58.5176 7.896 58.3176 8.104 58.0616 8.264C57.8056 8.408 57.5256 8.48 57.2216 8.48C56.9176 8.48 56.6376 8.408 56.3816 8.264C56.1256 8.104 55.9176 7.896 55.7576 7.64C55.6136 7.384 55.5416 7.104 55.5416 6.8C55.5416 6.496 55.6136 6.216 55.7576 5.96C55.9176 5.704 56.1256 5.504 56.3816 5.36C56.6376 5.2 56.9176 5.12 57.2216 5.12C57.5256 5.12 57.8056 5.2 58.0616 5.36C58.3176 5.504 58.5176 5.704 58.6616 5.96C58.8216 6.216 58.9016 6.496 58.9016 6.8ZM55.8536 22.856V10.304H58.6136V22.856H55.8536Z" fill="#08693A"/>
<path d="M66.0598 23.216C64.7958 23.216 63.8038 22.856 63.0838 22.136C62.3638 21.4 62.0038 20.352 62.0038 18.992V12.536H59.7958V10.304H62.0038V6.056H64.7638V10.304H68.4118V12.536H64.7638V18.704C64.7638 19.376 64.8998 19.896 65.1718 20.264C65.4598 20.616 65.8758 20.792 66.4198 20.792C66.7078 20.792 67.0198 20.752 67.3558 20.672C67.6918 20.576 68.0038 20.448 68.2918 20.288L68.9158 22.376C68.5478 22.632 68.1158 22.832 67.6198 22.976C67.1398 23.136 66.6198 23.216 66.0598 23.216Z" fill="#08693A"/>
<path d="M75.8042 23.216C74.9082 23.216 74.0842 23.056 73.3322 22.736C72.5802 22.4 71.9242 21.944 71.3642 21.368C70.8042 20.776 70.3642 20.08 70.0442 19.28C69.7402 18.48 69.5882 17.608 69.5882 16.664C69.5882 15.72 69.7482 14.84 70.0682 14.024C70.3882 13.208 70.8282 12.496 71.3882 11.888C71.9482 11.28 72.6042 10.808 73.3562 10.472C74.1242 10.12 74.9562 9.944 75.8522 9.944C76.7162 9.944 77.5082 10.104 78.2282 10.424C78.9482 10.728 79.5642 11.168 80.0762 11.744C80.6042 12.304 80.9802 12.968 81.2042 13.736L78.5882 14.36C78.3162 13.752 77.9322 13.28 77.4362 12.944C76.9562 12.608 76.4122 12.44 75.8042 12.44C75.1642 12.44 74.5882 12.624 74.0762 12.992C73.5642 13.36 73.1562 13.864 72.8522 14.504C72.5642 15.128 72.4202 15.84 72.4202 16.64C72.4202 17.424 72.5642 18.128 72.8522 18.752C73.1402 19.36 73.5322 19.84 74.0282 20.192C74.5402 20.544 75.1322 20.72 75.8042 20.72C76.4442 20.72 77.0282 20.56 77.5562 20.24C78.0842 19.904 78.4762 19.432 78.7322 18.824L81.3242 19.424C81.1002 20.192 80.7162 20.864 80.1722 21.44C79.6282 22 78.9802 22.44 78.2282 22.76C77.4762 23.064 76.6682 23.216 75.8042 23.216Z" fill="#08693A"/>
<path d="M82.8733 22.856V5H85.6333V11.816C86.0173 11.24 86.5293 10.784 87.1693 10.448C87.8093 10.112 88.5293 9.944 89.3293 9.944C90.2733 9.944 91.0893 10.168 91.7773 10.616C92.4813 11.064 93.0253 11.696 93.4093 12.512C93.7933 13.328 93.9853 14.288 93.9853 15.392V22.856H91.2253V15.704C91.2253 14.68 90.9933 13.88 90.5293 13.304C90.0813 12.728 89.4493 12.44 88.6333 12.44C88.0573 12.44 87.5373 12.576 87.0733 12.848C86.6253 13.12 86.2733 13.488 86.0173 13.952C85.7613 14.416 85.6333 14.952 85.6333 15.56V22.856H82.8733Z" fill="#08693A"/>
<path d="M101.543 23.216C100.711 23.216 99.9353 23.048 99.2153 22.712C98.5113 22.376 97.8953 21.912 97.3673 21.32C96.8393 20.728 96.4233 20.032 96.1193 19.232C95.8313 18.432 95.6873 17.568 95.6873 16.64C95.6873 15.696 95.8393 14.816 96.1433 14C96.4473 13.184 96.8713 12.472 97.4153 11.864C97.9593 11.256 98.5913 10.784 99.3113 10.448C100.047 10.112 100.839 9.944 101.687 9.944C102.519 9.944 103.279 10.12 103.967 10.472C104.655 10.824 105.223 11.32 105.671 11.96V5H108.431V22.856H105.911L105.791 20.84C105.343 21.576 104.751 22.16 104.015 22.592C103.279 23.008 102.455 23.216 101.543 23.216ZM102.119 20.72C102.807 20.72 103.423 20.544 103.967 20.192C104.511 19.824 104.935 19.328 105.239 18.704C105.559 18.08 105.719 17.376 105.719 16.592C105.719 15.792 105.559 15.08 105.239 14.456C104.935 13.832 104.511 13.344 103.967 12.992C103.423 12.624 102.807 12.44 102.119 12.44C101.431 12.44 100.815 12.624 100.271 12.992C99.7273 13.344 99.2952 13.832 98.9753 14.456C98.6712 15.08 98.5193 15.792 98.5193 16.592C98.5193 17.376 98.6712 18.08 98.9753 18.704C99.2952 19.328 99.7273 19.824 100.271 20.192C100.815 20.544 101.431 20.72 102.119 20.72Z" fill="#08693A"/>
<path d="M116.515 23.216C115.587 23.216 114.731 23.056 113.947 22.736C113.179 22.4 112.507 21.936 111.931 21.344C111.355 20.752 110.907 20.056 110.587 19.256C110.283 18.44 110.131 17.544 110.131 16.568C110.131 15.624 110.283 14.752 110.587 13.952C110.907 13.152 111.339 12.456 111.883 11.864C112.443 11.256 113.099 10.784 113.851 10.448C114.603 10.112 115.419 9.944 116.299 9.944C117.179 9.944 117.979 10.104 118.699 10.424C119.435 10.728 120.067 11.168 120.595 11.744C121.139 12.32 121.555 13.008 121.843 13.808C122.131 14.592 122.275 15.464 122.275 16.424V17.24H112.987C113.067 17.976 113.259 18.616 113.563 19.16C113.883 19.688 114.291 20.096 114.787 20.384C115.283 20.672 115.859 20.816 116.515 20.816C117.827 20.816 118.851 20.232 119.587 19.064L122.011 20C121.723 20.656 121.299 21.232 120.739 21.728C120.195 22.208 119.555 22.576 118.819 22.832C118.099 23.088 117.331 23.216 116.515 23.216ZM116.299 12.176C115.739 12.176 115.235 12.304 114.787 12.56C114.355 12.816 113.987 13.176 113.683 13.64C113.379 14.104 113.171 14.648 113.059 15.272H119.395C119.299 14.648 119.115 14.104 118.843 13.64C118.571 13.176 118.211 12.816 117.763 12.56C117.331 12.304 116.843 12.176 116.299 12.176Z" fill="#08693A"/>
<path d="M129.69 23.216C128.794 23.216 127.97 23.056 127.218 22.736C126.466 22.4 125.81 21.944 125.25 21.368C124.69 20.776 124.25 20.08 123.93 19.28C123.626 18.48 123.474 17.608 123.474 16.664C123.474 15.72 123.634 14.84 123.954 14.024C124.274 13.208 124.714 12.496 125.274 11.888C125.834 11.28 126.49 10.808 127.242 10.472C128.01 10.12 128.842 9.944 129.738 9.944C130.602 9.944 131.394 10.104 132.114 10.424C132.834 10.728 133.45 11.168 133.962 11.744C134.49 12.304 134.866 12.968 135.09 13.736L132.474 14.36C132.202 13.752 131.818 13.28 131.322 12.944C130.842 12.608 130.298 12.44 129.69 12.44C129.05 12.44 128.474 12.624 127.962 12.992C127.45 13.36 127.042 13.864 126.738 14.504C126.45 15.128 126.306 15.84 126.306 16.64C126.306 17.424 126.45 18.128 126.738 18.752C127.026 19.36 127.418 19.84 127.914 20.192C128.426 20.544 129.018 20.72 129.69 20.72C130.33 20.72 130.914 20.56 131.442 20.24C131.97 19.904 132.362 19.432 132.618 18.824L135.21 19.424C134.986 20.192 134.602 20.864 134.058 21.44C133.514 22 132.866 22.44 132.114 22.76C131.362 23.064 130.554 23.216 129.69 23.216Z" fill="#08693A"/>
<path d="M136.759 22.856V5H139.519V15.488L144.655 10.304H148.015L142.375 15.872L148.591 22.856H144.967L139.519 16.52V22.856H136.759Z" fill="#08693A"/>
<path d="M151.052 22.952C150.716 22.952 150.412 22.872 150.14 22.712C149.868 22.552 149.644 22.336 149.468 22.064C149.308 21.776 149.228 21.464 149.228 21.128C149.228 20.792 149.308 20.488 149.468 20.216C149.644 19.928 149.868 19.704 150.14 19.544C150.412 19.384 150.716 19.304 151.052 19.304C151.388 19.304 151.692 19.384 151.964 19.544C152.236 19.704 152.452 19.928 152.612 20.216C152.788 20.488 152.876 20.792 152.876 21.128C152.876 21.464 152.788 21.776 152.612 22.064C152.452 22.336 152.236 22.552 151.964 22.712C151.692 22.872 151.388 22.952 151.052 22.952Z" fill="#08693A"/>
<path d="M159.818 23.216C158.986 23.216 158.21 23.048 157.49 22.712C156.786 22.376 156.17 21.912 155.642 21.32C155.114 20.728 154.698 20.032 154.394 19.232C154.106 18.432 153.962 17.568 153.962 16.64C153.962 15.696 154.114 14.816 154.418 14C154.722 13.184 155.146 12.472 155.69 11.864C156.234 11.256 156.866 10.784 157.586 10.448C158.322 10.112 159.114 9.944 159.962 9.944C160.794 9.944 161.554 10.12 162.242 10.472C162.93 10.824 163.498 11.32 163.946 11.96V5H166.706V22.856H164.186L164.066 20.84C163.618 21.576 163.026 22.16 162.29 22.592C161.554 23.008 160.73 23.216 159.818 23.216ZM160.394 20.72C161.082 20.72 161.698 20.544 162.242 20.192C162.786 19.824 163.21 19.328 163.514 18.704C163.834 18.08 163.994 17.376 163.994 16.592C163.994 15.792 163.834 15.08 163.514 14.456C163.21 13.832 162.786 13.344 162.242 12.992C161.698 12.624 161.082 12.44 160.394 12.44C159.706 12.44 159.09 12.624 158.546 12.992C158.002 13.344 157.57 13.832 157.25 14.456C156.946 15.08 156.794 15.792 156.794 16.592C156.794 17.376 156.946 18.08 157.25 18.704C157.57 19.328 158.002 19.824 158.546 20.192C159.09 20.544 159.706 20.72 160.394 20.72Z" fill="#08693A"/>
<path d="M174.79 23.216C173.862 23.216 173.006 23.056 172.222 22.736C171.454 22.4 170.782 21.936 170.206 21.344C169.63 20.752 169.182 20.056 168.862 19.256C168.558 18.44 168.406 17.544 168.406 16.568C168.406 15.624 168.558 14.752 168.862 13.952C169.182 13.152 169.614 12.456 170.158 11.864C170.718 11.256 171.374 10.784 172.126 10.448C172.878 10.112 173.694 9.944 174.574 9.944C175.454 9.944 176.254 10.104 176.974 10.424C177.71 10.728 178.342 11.168 178.87 11.744C179.414 12.32 179.83 13.008 180.118 13.808C180.406 14.592 180.55 15.464 180.55 16.424V17.24H171.262C171.342 17.976 171.534 18.616 171.838 19.16C172.158 19.688 172.566 20.096 173.062 20.384C173.558 20.672 174.134 20.816 174.79 20.816C176.102 20.816 177.126 20.232 177.862 19.064L180.286 20C179.998 20.656 179.574 21.232 179.014 21.728C178.47 22.208 177.83 22.576 177.094 22.832C176.374 23.088 175.606 23.216 174.79 23.216ZM174.574 12.176C174.014 12.176 173.51 12.304 173.062 12.56C172.63 12.816 172.262 13.176 171.958 13.64C171.654 14.104 171.446 14.648 171.334 15.272H177.67C177.574 14.648 177.39 14.104 177.118 13.64C176.846 13.176 176.486 12.816 176.038 12.56C175.606 12.304 175.118 12.176 174.574 12.176Z" fill="#08693A"/>
<path d="M186.573 23.216C185.757 23.216 184.997 23.08 184.293 22.808C183.605 22.536 183.013 22.152 182.517 21.656C182.037 21.144 181.693 20.544 181.485 19.856L183.981 19.208C184.189 19.752 184.525 20.176 184.989 20.48C185.453 20.784 185.989 20.936 186.597 20.936C187.221 20.936 187.733 20.792 188.133 20.504C188.533 20.2 188.733 19.816 188.733 19.352C188.733 18.952 188.573 18.616 188.253 18.344C187.933 18.072 187.413 17.872 186.693 17.744L185.901 17.6C184.557 17.36 183.541 16.928 182.853 16.304C182.181 15.68 181.845 14.88 181.845 13.904C181.845 13.12 182.045 12.432 182.445 11.84C182.845 11.248 183.397 10.784 184.101 10.448C184.805 10.112 185.613 9.944 186.525 9.944C187.309 9.944 188.029 10.08 188.685 10.352C189.341 10.624 189.893 11.008 190.341 11.504C190.789 12 191.109 12.584 191.301 13.256L188.829 13.856C188.637 13.344 188.333 12.944 187.917 12.656C187.517 12.352 187.045 12.2 186.501 12.2C185.941 12.2 185.477 12.344 185.109 12.632C184.741 12.904 184.557 13.256 184.557 13.688C184.557 14.056 184.717 14.36 185.037 14.6C185.373 14.84 185.933 15.032 186.717 15.176L187.509 15.32C188.789 15.544 189.773 15.984 190.461 16.64C191.149 17.296 191.493 18.112 191.493 19.088C191.493 19.68 191.373 20.232 191.133 20.744C190.893 21.24 190.549 21.68 190.101 22.064C189.669 22.432 189.149 22.712 188.541 22.904C187.949 23.112 187.293 23.216 186.573 23.216Z" fill="#08693A"/>
<path d="M196.09 6.8C196.09 7.104 196.01 7.384 195.85 7.64C195.706 7.896 195.506 8.104 195.25 8.264C194.994 8.408 194.714 8.48 194.41 8.48C194.106 8.48 193.826 8.408 193.57 8.264C193.314 8.104 193.106 7.896 192.946 7.64C192.802 7.384 192.73 7.104 192.73 6.8C192.73 6.496 192.802 6.216 192.946 5.96C193.106 5.704 193.314 5.504 193.57 5.36C193.826 5.2 194.106 5.12 194.41 5.12C194.714 5.12 194.994 5.2 195.25 5.36C195.506 5.504 195.706 5.704 195.85 5.96C196.01 6.216 196.09 6.496 196.09 6.8ZM193.042 22.856V10.304H195.802V22.856H193.042Z" fill="#08693A"/>
<path d="M203.296 22.616C202.48 22.616 201.72 22.456 201.016 22.136C200.312 21.816 199.696 21.376 199.168 20.816C198.64 20.24 198.232 19.576 197.944 18.824C197.656 18.056 197.512 17.224 197.512 16.328C197.512 15.432 197.656 14.6 197.944 13.832C198.248 13.048 198.672 12.368 199.216 11.792C199.76 11.216 200.392 10.768 201.112 10.448C201.832 10.112 202.608 9.944 203.44 9.944C204.304 9.944 205.088 10.136 205.792 10.52C206.512 10.888 207.088 11.408 207.52 12.08L207.616 10.304H210.136V21.536C210.136 22.496 209.984 23.368 209.68 24.152C209.376 24.952 208.944 25.632 208.384 26.192C207.824 26.768 207.152 27.208 206.368 27.512C205.6 27.816 204.736 27.968 203.776 27.968C202.496 27.968 201.376 27.68 200.416 27.104C199.456 26.528 198.704 25.728 198.16 24.704L200.776 23.792C201.128 24.368 201.568 24.8 202.096 25.088C202.624 25.392 203.216 25.544 203.872 25.544C204.576 25.544 205.192 25.384 205.72 25.064C206.248 24.76 206.656 24.32 206.944 23.744C207.232 23.184 207.376 22.52 207.376 21.752V20.552C206.928 21.192 206.352 21.696 205.648 22.064C204.944 22.432 204.16 22.616 203.296 22.616ZM203.872 20.12C204.544 20.12 205.144 19.952 205.672 19.616C206.216 19.28 206.64 18.824 206.944 18.248C207.264 17.672 207.424 17.016 207.424 16.28C207.424 15.544 207.264 14.888 206.944 14.312C206.64 13.736 206.216 13.28 205.672 12.944C205.144 12.608 204.544 12.44 203.872 12.44C203.2 12.44 202.6 12.608 202.072 12.944C201.544 13.28 201.12 13.736 200.8 14.312C200.496 14.888 200.344 15.544 200.344 16.28C200.344 17.016 200.496 17.672 200.8 18.248C201.12 18.824 201.544 19.28 202.072 19.616C202.6 19.952 203.2 20.12 203.872 20.12Z" fill="#08693A"/>
<path d="M212.391 22.856V10.304H214.911L215.007 12.032C215.375 11.392 215.887 10.888 216.543 10.52C217.215 10.136 217.983 9.944 218.847 9.944C219.791 9.944 220.607 10.168 221.295 10.616C221.999 11.064 222.543 11.696 222.927 12.512C223.311 13.328 223.503 14.288 223.503 15.392V22.856H220.743V15.704C220.743 14.68 220.511 13.88 220.047 13.304C219.599 12.728 218.967 12.44 218.151 12.44C217.575 12.44 217.055 12.576 216.591 12.848C216.143 13.12 215.791 13.488 215.535 13.952C215.279 14.416 215.151 14.952 215.151 15.56V22.856H212.391Z" fill="#08693A"/>
<path fill-rule="evenodd" clip-rule="evenodd" d="M18.9999 1.98975H33.7521V4.48975H32.0599V15.4712V26.4526H33.7521V28.9526H0.0661157V26.4526H1.85744V4.48975H0V1.98975H14.9999C15.0054 0.889894 15.8987 0 16.9999 0C18.101 0 18.9943 0.889894 18.9999 1.98975ZM4.35744 26.4526V4.48975H29.5599V15.4712V26.4526H22.1034C22.0039 25.2032 22.0929 24.2403 22.3618 23.3674C22.7233 22.194 23.45 21.0512 24.7709 19.533C25.2467 18.9862 25.2969 18.167 24.8499 17.5637L18.2131 8.60573C17.5826 7.75473 16.3077 7.75913 15.6831 8.61446L9.13824 17.5768C8.7075 18.1666 8.74772 18.9601 9.19562 19.5044C10.4408 21.0177 11.1318 22.1695 11.4866 23.3602C11.7496 24.2427 11.8472 25.2112 11.7839 26.4526H4.35744ZM14.2868 26.4526H19.5966C19.503 25.0621 19.6043 23.8269 19.9726 22.6314C20.4241 21.1657 21.2462 19.8611 22.4027 18.4602L18.1699 12.747V19.3021C18.1699 19.9925 17.6103 20.5521 16.9199 20.5521C16.2296 20.5521 15.6699 19.9925 15.6699 19.3021V12.8716L11.5764 18.4771C12.6761 19.8859 13.4484 21.1896 13.8825 22.6463C14.2367 23.8348 14.3476 25.0641 14.2868 26.4526Z" fill="#08693A"/>
</svg>
