<svg width="80" height="80" viewBox="0 0 80 80" fill="none" xmlns="http://www.w3.org/2000/svg">
<path fill-rule="evenodd" clip-rule="evenodd" d="M14.5812 28.6675C11.1925 29.036 7.79676 30.9721 5.70505 33.7281C4.8011 34.919 3.81014 36.9356 3.38492 38.4493C3.0605 39.6044 3.05891 39.6643 3.01163 52.0817C2.979 60.6909 3.01438 64.9358 3.1262 65.7866C3.82203 71.0852 7.62809 75.3951 12.8925 76.8457L14.0736 77.1712H39.7432C64.5073 77.1712 65.4513 77.1615 66.5005 76.8949C71.4552 75.6367 75.032 72.0338 76.3243 66.9995C76.5591 66.085 76.5798 64.9393 76.5798 52.8793V39.7545L76.2464 38.5218C75.5345 35.8891 73.891 33.2673 71.9545 31.6744C70.2824 30.2991 68.8379 29.5619 66.5356 28.9094L65.4128 28.5911L40.5409 28.5702C26.8613 28.5586 15.1794 28.6024 14.5812 28.6675ZM51.4035 43.7885C52.5882 44.5725 53.0956 45.9362 52.7215 47.3301C52.5497 47.9695 52.0165 48.5422 45.5647 55.0167C41.626 58.9693 38.3704 62.1205 38.0806 62.2611C37.3573 62.612 36.1176 62.5843 35.3924 62.2012C35.0701 62.0309 33.097 60.1657 30.9518 58.0034C26.7267 53.7446 26.681 53.6803 26.7927 52.1381C26.8709 51.0566 27.4243 50.2135 28.3783 49.7226C29.1907 49.3044 30.4157 49.2591 31.1377 49.6202C31.4039 49.7534 32.7795 51.0131 34.1947 52.4195L36.7676 54.9766L42.4612 49.2986C46.7773 44.9944 48.2776 43.5842 48.6623 43.4696C49.5407 43.2083 50.7369 43.3474 51.4035 43.7885Z" fill="#CCC8A4"/>
<path fill-rule="evenodd" clip-rule="evenodd" d="M18.5463 3.22113C17.0926 3.73728 16.1565 5.12401 16.162 6.75324C16.164 7.35945 16.2612 7.91388 16.4301 8.28384C16.7651 9.01738 17.8244 9.99776 18.5639 10.2588C19.4101 10.5576 60.1859 10.5576 61.0321 10.2588C61.7716 9.99776 62.8309 9.01738 63.1659 8.28384C63.3349 7.91388 63.432 7.35945 63.4341 6.75324C63.4396 5.09167 62.4966 3.72524 60.9904 3.21199C60.4184 3.01708 57.8577 2.99184 39.736 3.00185C22.2362 3.01157 19.0436 3.04463 18.5463 3.22113ZM13.8375 15.5974C11.8039 16.2204 10.6899 18.2503 11.2781 20.2605C11.5703 21.2589 12.2145 22.0368 13.1641 22.5376L13.9109 22.9315H39.798H65.6852L66.4319 22.5376C67.6912 21.8735 68.5132 20.5316 68.5132 19.1399C68.5132 17.9095 67.5661 16.4578 66.3378 15.8049C65.8489 15.5451 64.8788 15.5343 40.0156 15.5105C25.8175 15.497 14.0373 15.536 13.8375 15.5974Z" fill="#21AB68"/>
</svg>
