<svg width="50" height="50" viewBox="0 0 50 50" fill="none" xmlns="http://www.w3.org/2000/svg">
<path id="Layer 1" fill-rule="evenodd" clip-rule="evenodd" d="M13.1001 0.0743669C12.3448 0.202091 11.2625 0.604596 10.5299 1.03034C10.0963 1.2823 8.64333 2.64385 5.58302 5.6657C0.881564 10.3081 0.772701 10.4398 0.248646 12.11L0 12.9023V25.474V38.0457L0.290443 38.8908C0.686763 40.0438 1.25261 40.9527 2.09142 41.7839C2.93034 42.615 3.84762 43.1757 5.01131 43.5684L5.8643 43.8561L17.6086 43.9089L29.3528 43.9618L29.8616 44.6485C31.5044 46.8658 34.1637 48.734 37.0303 49.6844C38.3143 50.1102 38.5182 50.1084 39.8772 49.6594C45.322 47.861 48.8131 43.4476 49.8165 37.0949C50.0641 35.5271 50.0604 31.851 49.8097 30.2874C49.5965 28.9577 49.3478 28.4139 48.691 27.8404C48.1487 27.3668 39.6157 22.7453 38.9513 22.5652L38.5584 22.4587L38.5201 14.2471L38.4818 6.03545L38.2166 5.18893C37.6092 3.25077 36.275 1.64202 34.5901 0.816413C32.8618 -0.030538 33.6453 0.0249255 23.084 0.00221194C17.8941 -0.00898636 13.4013 0.0234463 13.1001 0.0743669ZM32.4136 4.54143C33.029 4.82667 33.5598 5.32605 33.889 5.92981C34.1193 6.35207 34.1195 6.35883 34.1476 15.1737L34.1756 23.995L30.8523 25.781C28.7908 26.8889 27.382 27.7126 27.1421 27.9503C26.3428 28.7422 26.185 29.4709 26.1796 32.3969C26.1749 34.8889 26.5568 37.7845 27.0862 39.2715L27.235 39.6892L16.9229 39.6598C6.69426 39.6306 6.60672 39.6286 6.12542 39.4079C5.43524 39.0915 4.90842 38.5966 4.59196 37.9674L4.31825 37.4231V25.4212V13.4193L4.58983 12.8792C4.9533 12.1565 12.4859 4.81938 13.189 4.50329C13.6326 4.30384 13.9504 4.29697 22.7641 4.2957L31.8805 4.29444L32.4136 4.54143ZM11.9814 17.4985C10.337 18.3594 10.539 20.7929 12.3043 21.3898C12.5639 21.4776 14.5386 21.5123 19.2649 21.5123C24.9791 21.5123 25.9159 21.4905 26.258 21.3488C27.153 20.9783 27.6066 20.232 27.5426 19.2356C27.4891 18.403 27.1314 17.8282 26.4693 17.5106C26.0078 17.2893 25.9188 17.2867 19.1852 17.2912C12.6766 17.2957 12.3508 17.3051 11.9814 17.4985ZM12.2239 26.9076C11.4885 27.1994 11.0027 27.8323 10.8665 28.6757C10.7368 29.4795 11.2384 30.4265 11.9971 30.81C12.3888 31.008 12.6292 31.0203 16.1002 31.0203C19.5492 31.0203 19.8135 31.007 20.196 30.8137C21.7416 30.0325 21.7526 27.8447 20.2151 27.0404C19.7489 26.7966 19.7159 26.7947 16.1101 26.8012C14.0992 26.8049 12.3628 26.8525 12.2239 26.9076ZM41.8498 28.8899L45.5283 30.8671L45.5989 31.3927C45.7357 32.4108 45.6917 35.3538 45.5229 36.4804C45.1942 38.6736 44.3611 40.785 43.2546 42.2286C42.2502 43.5391 40.6926 44.7176 39.0878 45.3809C38.3861 45.671 38.1855 45.6397 36.9664 45.0495C35.3439 44.2641 33.8722 43.0136 32.9006 41.5948C31.3066 39.2671 30.4351 35.9141 30.4441 32.1448L30.4472 30.8619L34.1493 28.8829C36.1855 27.7945 37.9233 26.9059 38.0113 26.9083C38.0993 26.9108 39.8266 27.8025 41.8498 28.8899Z" fill="#10894E"/>
</svg>
