<?xml version="1.0" encoding="utf-8"?>
<!-- Generator: Adobe Illustrator 16.0.0, SVG Export Plug-In . SVG Version: 6.00 Build 0)  -->
<!DOCTYPE svg PUBLIC "-//W3C//DTD SVG 1.1//EN" "http://www.w3.org/Graphics/SVG/1.1/DTD/svg11.dtd">
<svg version="1.1" id="Layer_1" xmlns="http://www.w3.org/2000/svg" xmlns:xlink="http://www.w3.org/1999/xlink" x="0px" y="0px"
	 width="365.38px" height="68.093px" viewBox="0 0 365.38 68.093" enable-background="new 0 0 365.38 68.093" xml:space="preserve">
<g>
	<path fill="#102118" d="M4.245,51.842V8.792h13.036c3.436,0,6.376,0.566,8.823,1.698c2.445,1.132,4.325,2.75,5.639,4.851
		c1.313,2.102,1.971,4.649,1.971,7.64c0,2.83-0.688,5.306-2.062,7.428c-1.375,2.123-3.315,3.76-5.821,4.912
		c-2.507,1.152-5.458,1.728-8.853,1.728c-0.809,0-1.667-0.04-2.577-0.121c-0.91-0.081-1.87-0.182-2.88-0.303v15.219H4.245z
		 M11.521,15.219v14.977c0.889,0.121,1.778,0.223,2.668,0.303c0.889,0.081,1.718,0.121,2.486,0.121c3.071,0,5.427-0.667,7.063-2.001
		c1.637-1.334,2.456-3.233,2.456-5.7c0-2.425-0.789-4.314-2.365-5.669c-1.577-1.354-3.8-2.031-6.67-2.031H11.521z"/>
	<path fill="#102118" d="M39.836,51.842V8.792h13.036c3.436,0,6.376,0.566,8.823,1.698c2.445,1.132,4.325,2.75,5.639,4.851
		c1.313,2.102,1.971,4.649,1.971,7.64c0,2.83-0.688,5.306-2.062,7.428c-1.375,2.123-3.315,3.76-5.821,4.912
		c-2.507,1.152-5.458,1.728-8.853,1.728c-0.809,0-1.667-0.04-2.577-0.121c-0.91-0.081-1.87-0.182-2.88-0.303v15.219H39.836z
		 M47.112,15.219v14.977c0.889,0.121,1.778,0.223,2.668,0.303c0.889,0.081,1.718,0.121,2.486,0.121c3.071,0,5.427-0.667,7.063-2.001
		c1.637-1.334,2.456-3.233,2.456-5.7c0-2.425-0.789-4.314-2.365-5.669c-1.577-1.354-3.8-2.031-6.67-2.031H47.112z"/>
	<path fill="#102118" d="M85.858,51.842V15.401H73.307V8.792h32.5v6.609H93.256v36.441H85.858z"/>
	<path fill="#102118" d="M112.719,51.842V8.792h15.704c3.396,0,6.498,0.516,9.308,1.546c2.809,1.031,5.214,2.486,7.215,4.366
		c2.001,1.879,3.547,4.133,4.639,6.761c1.091,2.628,1.637,5.559,1.637,8.792c0,3.234-0.546,6.175-1.637,8.822
		c-1.091,2.648-2.648,4.922-4.669,6.821c-2.021,1.901-4.426,3.365-7.215,4.396c-2.79,1.031-5.882,1.546-9.277,1.546H112.719z
		 M120.117,45.233h7.943c3.193,0,5.942-0.606,8.247-1.819c2.304-1.213,4.093-2.941,5.366-5.184c1.273-2.244,1.91-4.881,1.91-7.913
		s-0.637-5.669-1.91-7.913c-1.273-2.244-3.073-3.972-5.396-5.185c-2.325-1.212-5.063-1.819-8.216-1.819h-7.943V45.233z"/>
	<path fill="#102118" d="M172.505,52.752c-2.345,0-4.498-0.415-6.458-1.243c-1.961-0.828-3.668-1.991-5.124-3.486
		c-1.456-1.495-2.577-3.264-3.365-5.306c-0.789-2.041-1.183-4.295-1.183-6.761c0-2.385,0.394-4.587,1.183-6.609
		c0.788-2.021,1.879-3.79,3.274-5.306c1.395-1.516,3.042-2.698,4.942-3.547c1.899-0.849,3.961-1.273,6.185-1.273
		c2.223,0,4.254,0.394,6.094,1.183c1.839,0.788,3.436,1.91,4.791,3.365c1.354,1.455,2.395,3.183,3.123,5.184s1.091,4.214,1.091,6.64
		v2.062h-23.466c0.202,1.86,0.698,3.466,1.486,4.82c0.788,1.355,1.809,2.395,3.062,3.123c1.252,0.728,2.708,1.092,4.366,1.092
		c3.314,0,5.901-1.475,7.761-4.426l6.124,2.365c-0.728,1.658-1.789,3.103-3.183,4.335c-1.395,1.234-3.012,2.174-4.851,2.82
		C176.516,52.428,174.566,52.752,172.505,52.752z M171.959,24.86c-1.416,0-2.678,0.324-3.79,0.97
		c-1.112,0.647-2.052,1.557-2.819,2.729c-0.769,1.173-1.294,2.546-1.577,4.123h16.008c-0.243-1.577-0.708-2.95-1.395-4.123
		c-0.688-1.172-1.587-2.082-2.698-2.729C174.576,25.184,173.333,24.86,171.959,24.86z"/>
	<path fill="#102118" d="M204.095,52.752c-2.062,0-3.971-0.344-5.73-1.031c-1.758-0.687-3.254-1.667-4.487-2.941
		c-1.233-1.273-2.113-2.779-2.638-4.518l6.306-1.637c0.525,1.375,1.374,2.446,2.547,3.213c1.172,0.769,2.525,1.152,4.063,1.152
		c1.576,0,2.87-0.374,3.88-1.122c1.01-0.748,1.516-1.707,1.516-2.88c0-1.01-0.405-1.859-1.213-2.547
		c-0.809-0.687-2.122-1.192-3.941-1.516l-2.001-0.364c-3.396-0.606-5.953-1.698-7.67-3.274c-1.719-1.577-2.577-3.598-2.577-6.063
		c0-1.98,0.505-3.719,1.516-5.215c1.01-1.495,2.405-2.668,4.184-3.517c1.778-0.849,3.82-1.273,6.124-1.273
		c1.98,0,3.799,0.344,5.457,1.031c1.657,0.688,3.052,1.658,4.184,2.911c1.131,1.253,1.94,2.729,2.425,4.426l-6.246,1.516
		c-0.485-1.293-1.243-2.313-2.273-3.062c-1.031-0.748-2.234-1.122-3.608-1.122c-1.416,0-2.587,0.354-3.517,1.061
		c-0.93,0.708-1.395,1.607-1.395,2.698c0,0.931,0.414,1.698,1.243,2.304c0.828,0.606,2.233,1.091,4.214,1.455l2.001,0.364
		c3.234,0.567,5.72,1.678,7.458,3.335c1.737,1.658,2.607,3.72,2.607,6.185c0,1.496-0.303,2.88-0.909,4.153
		c-0.606,1.273-1.466,2.386-2.577,3.335c-1.112,0.95-2.425,1.678-3.941,2.183C207.582,52.499,205.914,52.752,204.095,52.752z"/>
	<path fill="#102118" d="M229.985,11.278c0,0.768-0.192,1.476-0.576,2.122c-0.384,0.647-0.9,1.163-1.546,1.546
		c-0.647,0.385-1.355,0.576-2.123,0.576c-0.768,0-1.476-0.191-2.122-0.576c-0.647-0.383-1.163-0.899-1.546-1.546
		c-0.385-0.646-0.576-1.354-0.576-2.122c0-0.768,0.191-1.476,0.576-2.123c0.383-0.646,0.899-1.162,1.546-1.546
		c0.646-0.384,1.354-0.576,2.122-0.576c0.768,0,1.475,0.192,2.123,0.576c0.646,0.384,1.162,0.9,1.546,1.546
		C229.793,9.802,229.985,10.51,229.985,11.278z M222.285,51.842V20.13h6.973v31.712H222.285z"/>
	<path fill="#102118" d="M249.994,51.236c-2.062,0-3.982-0.403-5.76-1.212c-1.779-0.808-3.335-1.93-4.669-3.365
		c-1.334-1.435-2.365-3.112-3.092-5.033c-0.728-1.919-1.091-4.012-1.091-6.276c0-2.263,0.374-4.375,1.122-6.336
		c0.748-1.96,1.809-3.668,3.184-5.124c1.374-1.455,2.971-2.597,4.79-3.426c1.819-0.828,3.779-1.243,5.881-1.243
		c2.183,0,4.174,0.476,5.973,1.425c1.798,0.951,3.244,2.274,4.335,3.972l0.243-4.487h6.367v28.377c0,2.425-0.385,4.639-1.152,6.64
		c-0.768,2.001-1.86,3.719-3.274,5.154c-1.416,1.435-3.103,2.536-5.063,3.305c-1.961,0.768-4.154,1.152-6.579,1.152
		c-3.234,0-6.063-0.728-8.489-2.183s-4.326-3.477-5.7-6.063l6.609-2.304c0.889,1.455,2,2.556,3.334,3.305
		c1.334,0.748,2.829,1.122,4.487,1.122c1.778,0,3.335-0.394,4.669-1.182c1.334-0.789,2.365-1.901,3.092-3.335
		c0.728-1.436,1.091-3.123,1.091-5.063v-3.032c-1.132,1.617-2.587,2.891-4.366,3.82C254.157,50.771,252.177,51.236,249.994,51.236z
		 M251.45,44.93c1.698,0,3.223-0.424,4.578-1.273c1.354-0.849,2.426-2.001,3.214-3.457c0.788-1.455,1.182-3.112,1.182-4.972
		c0-1.859-0.394-3.517-1.182-4.972s-1.86-2.607-3.214-3.456c-1.354-0.849-2.88-1.273-4.578-1.273s-3.214,0.424-4.548,1.273
		c-1.334,0.849-2.395,2.001-3.183,3.456c-0.789,1.455-1.183,3.113-1.183,4.972c0,1.86,0.394,3.517,1.183,4.972
		c0.788,1.456,1.849,2.607,3.183,3.457C248.236,44.505,249.752,44.93,251.45,44.93z"/>
	<path fill="#102118" d="M274.794,51.842V20.13h6.367l0.243,4.366c0.929-1.616,2.233-2.9,3.911-3.851
		c1.677-0.949,3.608-1.425,5.791-1.425c2.384,0,4.457,0.566,6.215,1.698c1.758,1.132,3.123,2.729,4.093,4.79
		c0.97,2.062,1.456,4.487,1.456,7.276v18.857h-6.973V33.773c0-2.586-0.576-4.608-1.728-6.063c-1.152-1.455-2.759-2.183-4.821-2.183
		c-1.455,0-2.759,0.344-3.911,1.031c-1.152,0.688-2.052,1.617-2.698,2.789c-0.647,1.173-0.97,2.527-0.97,4.063v18.433H274.794z"/>
	<path fill="#102118" d="M325.121,52.752c-2.345,0-4.498-0.415-6.458-1.243c-1.961-0.828-3.668-1.991-5.124-3.486
		c-1.456-1.495-2.577-3.264-3.365-5.306c-0.789-2.041-1.183-4.295-1.183-6.761c0-2.385,0.394-4.587,1.183-6.609
		c0.788-2.021,1.879-3.79,3.274-5.306c1.395-1.516,3.042-2.698,4.942-3.547c1.899-0.849,3.961-1.273,6.185-1.273
		c2.223,0,4.254,0.394,6.094,1.183c1.839,0.788,3.436,1.91,4.791,3.365c1.354,1.455,2.395,3.183,3.123,5.184s1.091,4.214,1.091,6.64
		v2.062h-23.466c0.202,1.86,0.698,3.466,1.486,4.82c0.788,1.355,1.809,2.395,3.062,3.123c1.252,0.728,2.708,1.092,4.366,1.092
		c3.314,0,5.901-1.475,7.761-4.426l6.124,2.365c-0.728,1.658-1.789,3.103-3.183,4.335c-1.395,1.234-3.012,2.174-4.851,2.82
		C329.132,52.428,327.182,52.752,325.121,52.752z M324.575,24.86c-1.416,0-2.678,0.324-3.79,0.97
		c-1.112,0.647-2.052,1.557-2.819,2.729c-0.769,1.173-1.294,2.546-1.577,4.123h16.008c-0.243-1.577-0.708-2.95-1.395-4.123
		c-0.688-1.172-1.587-2.082-2.698-2.729C327.191,25.184,325.949,24.86,324.575,24.86z"/>
	<path fill="#102118" d="M345.614,51.842V20.13h6.367l0.303,5.214c0.808-1.778,1.93-3.162,3.365-4.153
		c1.435-0.99,3.123-1.485,5.063-1.485c0.606,0,1.192,0.041,1.758,0.121c0.566,0.082,1.071,0.223,1.516,0.424l-0.789,6.791
		c-0.445-0.161-0.909-0.272-1.395-0.333c-0.485-0.061-0.97-0.091-1.455-0.091c-2.425,0-4.326,0.809-5.7,2.425
		c-1.375,1.617-2.062,3.861-2.062,6.73v16.068H345.614z"/>
</g>
</svg>
