<svg width="60" height="60" viewBox="0 0 60 60" fill="none" xmlns="http://www.w3.org/2000/svg">
<g id="image 7 (Traced)">
<path id="Layer 1" fill-rule="evenodd" clip-rule="evenodd" d="M15.7201 0.0872871C14.8137 0.240556 13.5151 0.723562 12.6359 1.23446C12.1156 1.53681 10.372 3.17066 6.69963 6.79689C1.05788 12.3678 0.927241 12.5258 0.298376 14.5301L0 15.4808V30.5669V45.6529L0.348531 46.6671C0.824115 48.0507 1.50314 49.1413 2.50971 50.1387C3.5164 51.1361 4.61714 51.8088 6.01357 52.2801L7.03716 52.6254L21.1303 52.6888L35.2234 52.7522L35.834 53.5762C37.8053 56.237 40.9964 58.4789 44.4363 59.6193C45.9772 60.1302 46.2218 60.1281 47.8527 59.5893C54.3863 57.4312 58.5758 52.1352 59.7797 44.5119C60.077 42.6306 60.0725 38.2193 59.7717 36.3429C59.5158 34.7473 59.2174 34.0947 58.4293 33.4066C57.7784 32.8383 47.5388 27.2924 46.7416 27.0763L46.2701 26.9485L46.2241 17.0945L46.1782 7.24059L45.8599 6.22476C45.1311 3.89898 43.5301 1.96847 41.5081 0.977742C39.4342 -0.0385987 40.3743 0.0279574 27.7008 0.000701197C21.4729 -0.0127368 16.0816 0.0261824 15.7201 0.0872871ZM38.8963 5.44776C39.6348 5.79005 40.2717 6.38931 40.6668 7.11382C40.9432 7.62053 40.9435 7.62864 40.9771 18.2065L41.0108 28.792L37.0227 30.9353C34.549 32.2647 32.8584 33.2532 32.5705 33.5384C31.6114 34.4887 31.4221 35.3631 31.4155 38.8743C31.4099 41.8648 31.8682 45.3395 32.5035 47.1238L32.682 47.6251L20.3074 47.5898C8.03311 47.5547 7.92806 47.5523 7.3505 47.2875C6.52229 46.9078 5.8901 46.314 5.51035 45.5589L5.18191 44.9058V30.5035V16.1012L5.50779 15.4531C5.94397 14.5858 14.9831 5.78131 15.8268 5.402C16.3591 5.16265 16.7405 5.15441 27.317 5.15289L38.2565 5.15137L38.8963 5.44776ZM14.3777 20.9962C12.4045 22.0293 12.6468 24.9495 14.7651 25.6658C15.0767 25.7712 17.4463 25.8129 23.1178 25.8129C29.975 25.8129 31.0991 25.7866 31.5096 25.6166C32.5836 25.172 33.1279 24.2765 33.0511 23.0808C32.9869 22.0817 32.5577 21.3919 31.7632 21.0108C31.2094 20.7452 31.1026 20.7421 23.0222 20.7475C15.2119 20.7528 14.821 20.7641 14.3777 20.9962ZM14.6686 32.2872C13.7862 32.6373 13.2032 33.3968 13.0399 34.4088C12.8841 35.3735 13.4861 36.5099 14.3965 36.97C14.8666 37.2076 15.1551 37.2225 19.3202 37.2225C23.4591 37.2225 23.7762 37.2065 24.2352 36.9745C26.0899 36.037 26.1031 33.4117 24.2581 32.4465C23.6987 32.1539 23.659 32.1516 19.3321 32.1595C16.919 32.1639 14.8354 32.221 14.6686 32.2872ZM50.2197 34.6659L54.6339 37.0385L54.7186 37.6693C54.8828 38.891 54.8301 42.4226 54.6275 43.7745C54.2331 46.4064 53.2333 48.9401 51.9056 50.6723C50.7003 52.2449 48.8311 53.6591 46.9053 54.4551C46.0633 54.8032 45.8226 54.7657 44.3597 54.0574C42.4127 53.115 40.6466 51.6144 39.4808 49.9118C37.5679 47.1186 36.5221 43.095 36.5329 38.5718L36.5367 37.0323L40.9792 34.6576C43.4226 33.3514 45.508 32.2851 45.6136 32.2881C45.7191 32.291 47.7919 33.3611 50.2197 34.6659Z" fill="#10894E"/>
<path id="Layer 2" fill-rule="evenodd" clip-rule="evenodd" d="M15.7201 0.0872871C14.8137 0.240556 13.5151 0.723562 12.6359 1.23446C12.1156 1.53681 10.372 3.17066 6.69963 6.79689C1.05788 12.3678 0.927241 12.5258 0.298376 14.5301L0 15.4808V30.5669V45.6529L0.348531 46.6671C0.824115 48.0507 1.50314 49.1413 2.50971 50.1387C3.5164 51.1361 4.61714 51.8088 6.01357 52.2801L7.03716 52.6254L21.1303 52.6888L35.2234 52.7522L35.834 53.5762C37.8053 56.237 40.9964 58.4789 44.4363 59.6193C45.9772 60.1302 46.2218 60.1281 47.8527 59.5893C54.3863 57.4312 58.5758 52.1352 59.7797 44.5119C60.077 42.6306 60.0725 38.2193 59.7717 36.3429C59.5158 34.7473 59.2174 34.0947 58.4293 33.4066C57.7784 32.8383 47.5388 27.2924 46.7416 27.0763L46.2701 26.9485L46.2241 17.0945L46.1782 7.24059L45.8599 6.22476C45.1311 3.89898 43.5301 1.96847 41.5081 0.977742C39.4342 -0.0385987 40.3743 0.0279574 27.7008 0.000701197C21.4729 -0.0127368 16.0816 0.0261824 15.7201 0.0872871ZM38.8963 5.44776C39.6348 5.79005 40.2717 6.38931 40.6668 7.11382C40.9432 7.62053 40.9435 7.62864 40.9771 18.2065L41.0108 28.792L37.0227 30.9353C34.549 32.2647 32.8584 33.2532 32.5705 33.5384C31.6114 34.4887 31.4221 35.3631 31.4155 38.8743C31.4099 41.8648 31.8682 45.3395 32.5035 47.1238L32.682 47.6251L20.3074 47.5898C8.03311 47.5547 7.92806 47.5523 7.3505 47.2875C6.52229 46.9078 5.8901 46.314 5.51035 45.5589L5.18191 44.9058V30.5035V16.1012L5.50779 15.4531C5.94397 14.5858 14.9831 5.78131 15.8268 5.402C16.3591 5.16265 16.7405 5.15441 27.317 5.15289L38.2565 5.15137L38.8963 5.44776ZM14.3777 20.9962C12.4045 22.0293 12.6468 24.9495 14.7651 25.6658C15.0767 25.7712 17.4463 25.8129 23.1178 25.8129C29.975 25.8129 31.0991 25.7866 31.5096 25.6166C32.5836 25.172 33.1279 24.2765 33.0511 23.0808C32.9869 22.0817 32.5577 21.3919 31.7632 21.0108C31.2094 20.7452 31.1026 20.7421 23.0222 20.7475C15.2119 20.7528 14.821 20.7641 14.3777 20.9962ZM14.6686 32.2872C13.7862 32.6373 13.2032 33.3968 13.0399 34.4088C12.8841 35.3735 13.4861 36.5099 14.3965 36.97C14.8666 37.2076 15.1551 37.2225 19.3202 37.2225C23.4591 37.2225 23.7762 37.2065 24.2352 36.9745C26.0899 36.037 26.1031 33.4117 24.2581 32.4465C23.6987 32.1539 23.659 32.1516 19.3321 32.1595C16.919 32.1639 14.8354 32.221 14.6686 32.2872ZM50.2197 34.6659L54.6339 37.0385L54.7186 37.6693C54.8828 38.891 54.8301 42.4226 54.6275 43.7745C54.2331 46.4064 53.2333 48.9401 51.9056 50.6723C50.7003 52.2449 48.8311 53.6591 46.9053 54.4551C46.0633 54.8032 45.8226 54.7657 44.3597 54.0574C42.4127 53.115 40.6466 51.6144 39.4808 49.9118C37.5679 47.1186 36.5221 43.095 36.5329 38.5718L36.5367 37.0323L40.9792 34.6576C43.4226 33.3514 45.508 32.2851 45.6136 32.2881C45.7191 32.291 47.7919 33.3611 50.2197 34.6659Z" fill="#10894E"/>
<path id="Layer 3" fill-rule="evenodd" clip-rule="evenodd" d="M15.7201 0.0872871C14.8137 0.240556 13.5151 0.723562 12.6359 1.23446C12.1156 1.53681 10.372 3.17066 6.69963 6.79689C1.05788 12.3678 0.927241 12.5258 0.298376 14.5301L0 15.4808V30.5669V45.6529L0.348531 46.6671C0.824115 48.0507 1.50314 49.1413 2.50971 50.1387C3.5164 51.1361 4.61714 51.8088 6.01357 52.2801L7.03716 52.6254L21.1303 52.6888L35.2234 52.7522L35.834 53.5762C37.8053 56.237 40.9964 58.4789 44.4363 59.6193C45.9772 60.1302 46.2218 60.1281 47.8527 59.5893C54.3863 57.4312 58.5758 52.1352 59.7797 44.5119C60.077 42.6306 60.0725 38.2193 59.7717 36.3429C59.5158 34.7473 59.2174 34.0947 58.4293 33.4066C57.7784 32.8383 47.5388 27.2924 46.7416 27.0763L46.2701 26.9485L46.2241 17.0945L46.1782 7.24059L45.8599 6.22476C45.1311 3.89898 43.5301 1.96847 41.5081 0.977742C39.4342 -0.0385987 40.3743 0.0279574 27.7008 0.000701197C21.4729 -0.0127368 16.0816 0.0261824 15.7201 0.0872871ZM38.8963 5.44776C39.6348 5.79005 40.2717 6.38931 40.6668 7.11382C40.9432 7.62053 40.9435 7.62864 40.9771 18.2065L41.0108 28.792L37.0227 30.9353C34.549 32.2647 32.8584 33.2532 32.5705 33.5384C31.6114 34.4887 31.4221 35.3631 31.4155 38.8743C31.4099 41.8648 31.8682 45.3395 32.5035 47.1238L32.682 47.6251L20.3074 47.5898C8.03311 47.5547 7.92806 47.5523 7.3505 47.2875C6.52229 46.9078 5.8901 46.314 5.51035 45.5589L5.18191 44.9058V30.5035V16.1012L5.50779 15.4531C5.94397 14.5858 14.9831 5.78131 15.8268 5.402C16.3591 5.16265 16.7405 5.15441 27.317 5.15289L38.2565 5.15137L38.8963 5.44776ZM14.3777 20.9962C12.4045 22.0293 12.6468 24.9495 14.7651 25.6658C15.0767 25.7712 17.4463 25.8129 23.1178 25.8129C29.975 25.8129 31.0991 25.7866 31.5096 25.6166C32.5836 25.172 33.1279 24.2765 33.0511 23.0808C32.9869 22.0817 32.5577 21.3919 31.7632 21.0108C31.2094 20.7452 31.1026 20.7421 23.0222 20.7475C15.2119 20.7528 14.821 20.7641 14.3777 20.9962ZM14.6686 32.2872C13.7862 32.6373 13.2032 33.3968 13.0399 34.4088C12.8841 35.3735 13.4861 36.5099 14.3965 36.97C14.8666 37.2076 15.1551 37.2225 19.3202 37.2225C23.4591 37.2225 23.7762 37.2065 24.2352 36.9745C26.0899 36.037 26.1031 33.4117 24.2581 32.4465C23.6987 32.1539 23.659 32.1516 19.3321 32.1595C16.919 32.1639 14.8354 32.221 14.6686 32.2872ZM50.2197 34.6659L54.6339 37.0385L54.7186 37.6693C54.8828 38.891 54.8301 42.4226 54.6275 43.7745C54.2331 46.4064 53.2333 48.9401 51.9056 50.6723C50.7003 52.2449 48.8311 53.6591 46.9053 54.4551C46.0633 54.8032 45.8226 54.7657 44.3597 54.0574C42.4127 53.115 40.6466 51.6144 39.4808 49.9118C37.5679 47.1186 36.5221 43.095 36.5329 38.5718L36.5367 37.0323L40.9792 34.6576C43.4226 33.3514 45.508 32.2851 45.6136 32.2881C45.7191 32.291 47.7919 33.3611 50.2197 34.6659Z" fill="#10894E"/>
<path id="Layer 4" fill-rule="evenodd" clip-rule="evenodd" d="M15.7201 0.0872871C14.8137 0.240556 13.5151 0.723562 12.6359 1.23446C12.1156 1.53681 10.372 3.17066 6.69963 6.79689C1.05788 12.3678 0.927241 12.5258 0.298376 14.5301L0 15.4808V30.5669V45.6529L0.348531 46.6671C0.824115 48.0507 1.50314 49.1413 2.50971 50.1387C3.5164 51.1361 4.61714 51.8088 6.01357 52.2801L7.03716 52.6254L21.1303 52.6888L35.2234 52.7522L35.834 53.5762C37.8053 56.237 40.9964 58.4789 44.4363 59.6193C45.9772 60.1302 46.2218 60.1281 47.8527 59.5893C54.3863 57.4312 58.5758 52.1352 59.7797 44.5119C60.077 42.6306 60.0725 38.2193 59.7717 36.3429C59.5158 34.7473 59.2174 34.0947 58.4293 33.4066C57.7784 32.8383 47.5388 27.2924 46.7416 27.0763L46.2701 26.9485L46.2241 17.0945L46.1782 7.24059L45.8599 6.22476C45.1311 3.89898 43.5301 1.96847 41.5081 0.977742C39.4342 -0.0385987 40.3743 0.0279574 27.7008 0.000701197C21.4729 -0.0127368 16.0816 0.0261824 15.7201 0.0872871ZM38.8963 5.44776C39.6348 5.79005 40.2717 6.38931 40.6668 7.11382C40.9432 7.62053 40.9435 7.62864 40.9771 18.2065L41.0108 28.792L37.0227 30.9353C34.549 32.2647 32.8584 33.2532 32.5705 33.5384C31.6114 34.4887 31.4221 35.3631 31.4155 38.8743C31.4099 41.8648 31.8682 45.3395 32.5035 47.1238L32.682 47.6251L20.3074 47.5898C8.03311 47.5547 7.92806 47.5523 7.3505 47.2875C6.52229 46.9078 5.8901 46.314 5.51035 45.5589L5.18191 44.9058V30.5035V16.1012L5.50779 15.4531C5.94397 14.5858 14.9831 5.78131 15.8268 5.402C16.3591 5.16265 16.7405 5.15441 27.317 5.15289L38.2565 5.15137L38.8963 5.44776ZM14.3777 20.9962C12.4045 22.0293 12.6468 24.9495 14.7651 25.6658C15.0767 25.7712 17.4463 25.8129 23.1178 25.8129C29.975 25.8129 31.0991 25.7866 31.5096 25.6166C32.5836 25.172 33.1279 24.2765 33.0511 23.0808C32.9869 22.0817 32.5577 21.3919 31.7632 21.0108C31.2094 20.7452 31.1026 20.7421 23.0222 20.7475C15.2119 20.7528 14.821 20.7641 14.3777 20.9962ZM14.6686 32.2872C13.7862 32.6373 13.2032 33.3968 13.0399 34.4088C12.8841 35.3735 13.4861 36.5099 14.3965 36.97C14.8666 37.2076 15.1551 37.2225 19.3202 37.2225C23.4591 37.2225 23.7762 37.2065 24.2352 36.9745C26.0899 36.037 26.1031 33.4117 24.2581 32.4465C23.6987 32.1539 23.659 32.1516 19.3321 32.1595C16.919 32.1639 14.8354 32.221 14.6686 32.2872ZM50.2197 34.6659L54.6339 37.0385L54.7186 37.6693C54.8828 38.891 54.8301 42.4226 54.6275 43.7745C54.2331 46.4064 53.2333 48.9401 51.9056 50.6723C50.7003 52.2449 48.8311 53.6591 46.9053 54.4551C46.0633 54.8032 45.8226 54.7657 44.3597 54.0574C42.4127 53.115 40.6466 51.6144 39.4808 49.9118C37.5679 47.1186 36.5221 43.095 36.5329 38.5718L36.5367 37.0323L40.9792 34.6576C43.4226 33.3514 45.508 32.2851 45.6136 32.2881C45.7191 32.291 47.7919 33.3611 50.2197 34.6659Z" fill="#10894E"/>
<path id="Layer 5" fill-rule="evenodd" clip-rule="evenodd" d="M15.7201 0.0872871C14.8137 0.240556 13.5151 0.723562 12.6359 1.23446C12.1156 1.53681 10.372 3.17066 6.69963 6.79689C1.05788 12.3678 0.927241 12.5258 0.298376 14.5301L0 15.4808V30.5669V45.6529L0.348531 46.6671C0.824115 48.0507 1.50314 49.1413 2.50971 50.1387C3.5164 51.1361 4.61714 51.8088 6.01357 52.2801L7.03716 52.6254L21.1303 52.6888L35.2234 52.7522L35.834 53.5762C37.8053 56.237 40.9964 58.4789 44.4363 59.6193C45.9772 60.1302 46.2218 60.1281 47.8527 59.5893C54.3863 57.4312 58.5758 52.1352 59.7797 44.5119C60.077 42.6306 60.0725 38.2193 59.7717 36.3429C59.5158 34.7473 59.2174 34.0947 58.4293 33.4066C57.7784 32.8383 47.5388 27.2924 46.7416 27.0763L46.2701 26.9485L46.2241 17.0945L46.1782 7.24059L45.8599 6.22476C45.1311 3.89898 43.5301 1.96847 41.5081 0.977742C39.4342 -0.0385987 40.3743 0.0279574 27.7008 0.000701197C21.4729 -0.0127368 16.0816 0.0261824 15.7201 0.0872871ZM38.8963 5.44776C39.6348 5.79005 40.2717 6.38931 40.6668 7.11382C40.9432 7.62053 40.9435 7.62864 40.9771 18.2065L41.0108 28.792L37.0227 30.9353C34.549 32.2647 32.8584 33.2532 32.5705 33.5384C31.6114 34.4887 31.4221 35.3631 31.4155 38.8743C31.4099 41.8648 31.8682 45.3395 32.5035 47.1238L32.682 47.6251L20.3074 47.5898C8.03311 47.5547 7.92806 47.5523 7.3505 47.2875C6.52229 46.9078 5.8901 46.314 5.51035 45.5589L5.18191 44.9058V30.5035V16.1012L5.50779 15.4531C5.94397 14.5858 14.9831 5.78131 15.8268 5.402C16.3591 5.16265 16.7405 5.15441 27.317 5.15289L38.2565 5.15137L38.8963 5.44776ZM14.3777 20.9962C12.4045 22.0293 12.6468 24.9495 14.7651 25.6658C15.0767 25.7712 17.4463 25.8129 23.1178 25.8129C29.975 25.8129 31.0991 25.7866 31.5096 25.6166C32.5836 25.172 33.1279 24.2765 33.0511 23.0808C32.9869 22.0817 32.5577 21.3919 31.7632 21.0108C31.2094 20.7452 31.1026 20.7421 23.0222 20.7475C15.2119 20.7528 14.821 20.7641 14.3777 20.9962ZM14.6686 32.2872C13.7862 32.6373 13.2032 33.3968 13.0399 34.4088C12.8841 35.3735 13.4861 36.5099 14.3965 36.97C14.8666 37.2076 15.1551 37.2225 19.3202 37.2225C23.4591 37.2225 23.7762 37.2065 24.2352 36.9745C26.0899 36.037 26.1031 33.4117 24.2581 32.4465C23.6987 32.1539 23.659 32.1516 19.3321 32.1595C16.919 32.1639 14.8354 32.221 14.6686 32.2872ZM50.2197 34.6659L54.6339 37.0385L54.7186 37.6693C54.8828 38.891 54.8301 42.4226 54.6275 43.7745C54.2331 46.4064 53.2333 48.9401 51.9056 50.6723C50.7003 52.2449 48.8311 53.6591 46.9053 54.4551C46.0633 54.8032 45.8226 54.7657 44.3597 54.0574C42.4127 53.115 40.6466 51.6144 39.4808 49.9118C37.5679 47.1186 36.5221 43.095 36.5329 38.5718L36.5367 37.0323L40.9792 34.6576C43.4226 33.3514 45.508 32.2851 45.6136 32.2881C45.7191 32.291 47.7919 33.3611 50.2197 34.6659Z" fill="#10894E"/>
<path id="Layer 6" fill-rule="evenodd" clip-rule="evenodd" d="M15.7201 0.0872871C14.8137 0.240556 13.5151 0.723562 12.6359 1.23446C12.1156 1.53681 10.372 3.17066 6.69963 6.79689C1.05788 12.3678 0.927241 12.5258 0.298376 14.5301L0 15.4808V30.5669V45.6529L0.348531 46.6671C0.824115 48.0507 1.50314 49.1413 2.50971 50.1387C3.5164 51.1361 4.61714 51.8088 6.01357 52.2801L7.03716 52.6254L21.1303 52.6888L35.2234 52.7522L35.834 53.5762C37.8053 56.237 40.9964 58.4789 44.4363 59.6193C45.9772 60.1302 46.2218 60.1281 47.8527 59.5893C54.3863 57.4312 58.5758 52.1352 59.7797 44.5119C60.077 42.6306 60.0725 38.2193 59.7717 36.3429C59.5158 34.7473 59.2174 34.0947 58.4293 33.4066C57.7784 32.8383 47.5388 27.2924 46.7416 27.0763L46.2701 26.9485L46.2241 17.0945L46.1782 7.24059L45.8599 6.22476C45.1311 3.89898 43.5301 1.96847 41.5081 0.977742C39.4342 -0.0385987 40.3743 0.0279574 27.7008 0.000701197C21.4729 -0.0127368 16.0816 0.0261824 15.7201 0.0872871ZM38.8963 5.44776C39.6348 5.79005 40.2717 6.38931 40.6668 7.11382C40.9432 7.62053 40.9435 7.62864 40.9771 18.2065L41.0108 28.792L37.0227 30.9353C34.549 32.2647 32.8584 33.2532 32.5705 33.5384C31.6114 34.4887 31.4221 35.3631 31.4155 38.8743C31.4099 41.8648 31.8682 45.3395 32.5035 47.1238L32.682 47.6251L20.3074 47.5898C8.03311 47.5547 7.92806 47.5523 7.3505 47.2875C6.52229 46.9078 5.8901 46.314 5.51035 45.5589L5.18191 44.9058V30.5035V16.1012L5.50779 15.4531C5.94397 14.5858 14.9831 5.78131 15.8268 5.402C16.3591 5.16265 16.7405 5.15441 27.317 5.15289L38.2565 5.15137L38.8963 5.44776ZM14.3777 20.9962C12.4045 22.0293 12.6468 24.9495 14.7651 25.6658C15.0767 25.7712 17.4463 25.8129 23.1178 25.8129C29.975 25.8129 31.0991 25.7866 31.5096 25.6166C32.5836 25.172 33.1279 24.2765 33.0511 23.0808C32.9869 22.0817 32.5577 21.3919 31.7632 21.0108C31.2094 20.7452 31.1026 20.7421 23.0222 20.7475C15.2119 20.7528 14.821 20.7641 14.3777 20.9962ZM14.6686 32.2872C13.7862 32.6373 13.2032 33.3968 13.0399 34.4088C12.8841 35.3735 13.4861 36.5099 14.3965 36.97C14.8666 37.2076 15.1551 37.2225 19.3202 37.2225C23.4591 37.2225 23.7762 37.2065 24.2352 36.9745C26.0899 36.037 26.1031 33.4117 24.2581 32.4465C23.6987 32.1539 23.659 32.1516 19.3321 32.1595C16.919 32.1639 14.8354 32.221 14.6686 32.2872ZM50.2197 34.6659L54.6339 37.0385L54.7186 37.6693C54.8828 38.891 54.8301 42.4226 54.6275 43.7745C54.2331 46.4064 53.2333 48.9401 51.9056 50.6723C50.7003 52.2449 48.8311 53.6591 46.9053 54.4551C46.0633 54.8032 45.8226 54.7657 44.3597 54.0574C42.4127 53.115 40.6466 51.6144 39.4808 49.9118C37.5679 47.1186 36.5221 43.095 36.5329 38.5718L36.5367 37.0323L40.9792 34.6576C43.4226 33.3514 45.508 32.2851 45.6136 32.2881C45.7191 32.291 47.7919 33.3611 50.2197 34.6659Z" fill="#10894E"/>
<path id="Layer 7" fill-rule="evenodd" clip-rule="evenodd" d="M15.7201 0.0872871C14.8137 0.240556 13.5151 0.723562 12.6359 1.23446C12.1156 1.53681 10.372 3.17066 6.69963 6.79689C1.05788 12.3678 0.927241 12.5258 0.298376 14.5301L0 15.4808V30.5669V45.6529L0.348531 46.6671C0.824115 48.0507 1.50314 49.1413 2.50971 50.1387C3.5164 51.1361 4.61714 51.8088 6.01357 52.2801L7.03716 52.6254L21.1303 52.6888L35.2234 52.7522L35.834 53.5762C37.8053 56.237 40.9964 58.4789 44.4363 59.6193C45.9772 60.1302 46.2218 60.1281 47.8527 59.5893C54.3863 57.4312 58.5758 52.1352 59.7797 44.5119C60.077 42.6306 60.0725 38.2193 59.7717 36.3429C59.5158 34.7473 59.2174 34.0947 58.4293 33.4066C57.7784 32.8383 47.5388 27.2924 46.7416 27.0763L46.2701 26.9485L46.2241 17.0945L46.1782 7.24059L45.8599 6.22476C45.1311 3.89898 43.5301 1.96847 41.5081 0.977742C39.4342 -0.0385987 40.3743 0.0279574 27.7008 0.000701197C21.4729 -0.0127368 16.0816 0.0261824 15.7201 0.0872871ZM38.8963 5.44776C39.6348 5.79005 40.2717 6.38931 40.6668 7.11382C40.9432 7.62053 40.9435 7.62864 40.9771 18.2065L41.0108 28.792L37.0227 30.9353C34.549 32.2647 32.8584 33.2532 32.5705 33.5384C31.6114 34.4887 31.4221 35.3631 31.4155 38.8743C31.4099 41.8648 31.8682 45.3395 32.5035 47.1238L32.682 47.6251L20.3074 47.5898C8.03311 47.5547 7.92806 47.5523 7.3505 47.2875C6.52229 46.9078 5.8901 46.314 5.51035 45.5589L5.18191 44.9058V30.5035V16.1012L5.50779 15.4531C5.94397 14.5858 14.9831 5.78131 15.8268 5.402C16.3591 5.16265 16.7405 5.15441 27.317 5.15289L38.2565 5.15137L38.8963 5.44776ZM14.3777 20.9962C12.4045 22.0293 12.6468 24.9495 14.7651 25.6658C15.0767 25.7712 17.4463 25.8129 23.1178 25.8129C29.975 25.8129 31.0991 25.7866 31.5096 25.6166C32.5836 25.172 33.1279 24.2765 33.0511 23.0808C32.9869 22.0817 32.5577 21.3919 31.7632 21.0108C31.2094 20.7452 31.1026 20.7421 23.0222 20.7475C15.2119 20.7528 14.821 20.7641 14.3777 20.9962ZM14.6686 32.2872C13.7862 32.6373 13.2032 33.3968 13.0399 34.4088C12.8841 35.3735 13.4861 36.5099 14.3965 36.97C14.8666 37.2076 15.1551 37.2225 19.3202 37.2225C23.4591 37.2225 23.7762 37.2065 24.2352 36.9745C26.0899 36.037 26.1031 33.4117 24.2581 32.4465C23.6987 32.1539 23.659 32.1516 19.3321 32.1595C16.919 32.1639 14.8354 32.221 14.6686 32.2872ZM50.2197 34.6659L54.6339 37.0385L54.7186 37.6693C54.8828 38.891 54.8301 42.4226 54.6275 43.7745C54.2331 46.4064 53.2333 48.9401 51.9056 50.6723C50.7003 52.2449 48.8311 53.6591 46.9053 54.4551C46.0633 54.8032 45.8226 54.7657 44.3597 54.0574C42.4127 53.115 40.6466 51.6144 39.4808 49.9118C37.5679 47.1186 36.5221 43.095 36.5329 38.5718L36.5367 37.0323L40.9792 34.6576C43.4226 33.3514 45.508 32.2851 45.6136 32.2881C45.7191 32.291 47.7919 33.3611 50.2197 34.6659Z" fill="#10894E"/>
<path id="Layer 8" fill-rule="evenodd" clip-rule="evenodd" d="M15.7201 0.0872871C14.8137 0.240556 13.5151 0.723562 12.6359 1.23446C12.1156 1.53681 10.372 3.17066 6.69963 6.79689C1.05788 12.3678 0.927241 12.5258 0.298376 14.5301L0 15.4808V30.5669V45.6529L0.348531 46.6671C0.824115 48.0507 1.50314 49.1413 2.50971 50.1387C3.5164 51.1361 4.61714 51.8088 6.01357 52.2801L7.03716 52.6254L21.1303 52.6888L35.2234 52.7522L35.834 53.5762C37.8053 56.237 40.9964 58.4789 44.4363 59.6193C45.9772 60.1302 46.2218 60.1281 47.8527 59.5893C54.3863 57.4312 58.5758 52.1352 59.7797 44.5119C60.077 42.6306 60.0725 38.2193 59.7717 36.3429C59.5158 34.7473 59.2174 34.0947 58.4293 33.4066C57.7784 32.8383 47.5388 27.2924 46.7416 27.0763L46.2701 26.9485L46.2241 17.0945L46.1782 7.24059L45.8599 6.22476C45.1311 3.89898 43.5301 1.96847 41.5081 0.977742C39.4342 -0.0385987 40.3743 0.0279574 27.7008 0.000701197C21.4729 -0.0127368 16.0816 0.0261824 15.7201 0.0872871ZM38.8963 5.44776C39.6348 5.79005 40.2717 6.38931 40.6668 7.11382C40.9432 7.62053 40.9435 7.62864 40.9771 18.2065L41.0108 28.792L37.0227 30.9353C34.549 32.2647 32.8584 33.2532 32.5705 33.5384C31.6114 34.4887 31.4221 35.3631 31.4155 38.8743C31.4099 41.8648 31.8682 45.3395 32.5035 47.1238L32.682 47.6251L20.3074 47.5898C8.03311 47.5547 7.92806 47.5523 7.3505 47.2875C6.52229 46.9078 5.8901 46.314 5.51035 45.5589L5.18191 44.9058V30.5035V16.1012L5.50779 15.4531C5.94397 14.5858 14.9831 5.78131 15.8268 5.402C16.3591 5.16265 16.7405 5.15441 27.317 5.15289L38.2565 5.15137L38.8963 5.44776ZM14.3777 20.9962C12.4045 22.0293 12.6468 24.9495 14.7651 25.6658C15.0767 25.7712 17.4463 25.8129 23.1178 25.8129C29.975 25.8129 31.0991 25.7866 31.5096 25.6166C32.5836 25.172 33.1279 24.2765 33.0511 23.0808C32.9869 22.0817 32.5577 21.3919 31.7632 21.0108C31.2094 20.7452 31.1026 20.7421 23.0222 20.7475C15.2119 20.7528 14.821 20.7641 14.3777 20.9962ZM14.6686 32.2872C13.7862 32.6373 13.2032 33.3968 13.0399 34.4088C12.8841 35.3735 13.4861 36.5099 14.3965 36.97C14.8666 37.2076 15.1551 37.2225 19.3202 37.2225C23.4591 37.2225 23.7762 37.2065 24.2352 36.9745C26.0899 36.037 26.1031 33.4117 24.2581 32.4465C23.6987 32.1539 23.659 32.1516 19.3321 32.1595C16.919 32.1639 14.8354 32.221 14.6686 32.2872ZM50.2197 34.6659L54.6339 37.0385L54.7186 37.6693C54.8828 38.891 54.8301 42.4226 54.6275 43.7745C54.2331 46.4064 53.2333 48.9401 51.9056 50.6723C50.7003 52.2449 48.8311 53.6591 46.9053 54.4551C46.0633 54.8032 45.8226 54.7657 44.3597 54.0574C42.4127 53.115 40.6466 51.6144 39.4808 49.9118C37.5679 47.1186 36.5221 43.095 36.5329 38.5718L36.5367 37.0323L40.9792 34.6576C43.4226 33.3514 45.508 32.2851 45.6136 32.2881C45.7191 32.291 47.7919 33.3611 50.2197 34.6659Z" fill="#10894E"/>
</g>
</svg>
