<svg width="50" height="50" viewBox="0 0 50 50" fill="none" xmlns="http://www.w3.org/2000/svg">
<g id="Refunds">
<path id="Layer 8" fill-rule="evenodd" clip-rule="evenodd" d="M4.24805 0.181717C2.24629 0.765897 0.661523 2.38103 0.145215 4.36316C0.0290039 4.80926 0 5.6618 0 8.62693V12.3332L0.246777 12.7543C0.391406 13.0011 0.667676 13.2773 0.914453 13.422L1.33555 13.6687H22.7381H44.1406V21.1064V28.5441L44.3874 28.9652C44.7449 29.5753 45.313 29.8797 46.0938 29.8797C46.8745 29.8797 47.4426 29.5753 47.8001 28.9652L48.0469 28.5441V21.1064V13.6687H48.3557C48.8137 13.6687 49.4684 13.2403 49.7532 12.7543L50 12.3332V8.6449C50 4.53709 49.9763 4.33523 49.3449 3.08152C48.8758 2.14959 47.8473 1.12107 46.9153 0.651932C45.5106 -0.0553919 47.2564 -0.00392705 24.9371 0.0037878C6.0876 0.0103308 4.79746 0.0214636 4.24805 0.181717ZM44.9707 4.16131C45.4187 4.40135 45.606 4.59373 45.8601 5.07498C46.0162 5.37068 46.0454 5.70965 46.0766 7.58963L46.1126 9.76248H25H3.8874L3.92344 7.58963C3.95459 5.70965 3.98379 5.37068 4.13994 5.07498C4.47686 4.43689 4.87568 4.13465 5.56641 3.99383C5.75439 3.95545 14.6094 3.93035 25.2441 3.93807L44.5801 3.95193L44.9707 4.16131ZM19.4594 17.8248C18.857 18.1858 18.5547 18.755 18.5547 19.5281C18.5547 20.3089 18.8591 20.8769 19.4691 21.2345L19.8902 21.4812H24.9023H29.9145L30.3355 21.2345C30.9456 20.8769 31.25 20.3089 31.25 19.5281C31.25 18.7473 30.9456 18.1793 30.3355 17.8218L29.9145 17.575L24.8938 17.5759L19.873 17.5768L19.4594 17.8248ZM2.85781 18.8013C2.62383 18.9416 2.3374 19.2313 2.19863 19.4681L1.95312 19.8871V31.606C1.95312 44.9331 1.89531 43.9613 2.79775 45.7976C3.19277 46.6013 3.38555 46.8565 4.23916 47.7063C5.08047 48.5437 5.36035 48.7548 6.15234 49.1485C7.9833 50.059 6.86533 49.9969 21.4182 49.9969H34.2113L34.6324 49.7501C35.2425 49.3926 35.5469 48.8245 35.5469 48.0437C35.5469 47.263 35.2425 46.6949 34.6324 46.3374L34.2113 46.0906L22.1105 46.0886C14.5125 46.0875 9.75654 46.0502 9.3292 45.9884C8.39844 45.8539 7.71367 45.5163 7.07373 44.8762C6.43369 44.2363 6.09609 43.5515 5.96162 42.6208C5.90029 42.1964 5.8625 37.7904 5.86133 30.9137L5.85938 19.8871L5.6126 19.466C5.25313 18.8526 4.6875 18.5513 3.89766 18.5524C3.40195 18.5532 3.18525 18.6051 2.85781 18.8013ZM31.0494 27.2304C30.3365 27.6911 26.5278 31.6095 26.2438 32.1746C25.4395 33.7746 25.491 35.7489 26.3737 37.1551C26.7525 37.7584 30.4544 41.5176 31.0494 41.9031C31.414 42.1392 31.5848 42.1844 32.115 42.1844C33.322 42.1844 34.082 41.4339 34.082 40.2422C34.082 39.8747 34.0193 39.5124 33.923 39.323C33.8354 39.1511 33.2335 38.4722 32.5852 37.8142L31.4064 36.6179L36.2843 36.621C38.9671 36.6226 41.4912 36.6667 41.8935 36.7189C43.4948 36.9266 44.878 37.9397 45.5814 39.4199C45.9102 40.1116 45.9471 40.2731 45.9797 41.159C46.0094 41.9678 45.979 42.2446 45.8029 42.7703C45.1524 44.7121 43.6463 45.8412 41.4348 46.0448C40.9075 46.0933 40.6232 46.1779 40.3015 46.382C39.1513 47.1114 39.1597 48.9813 40.3164 49.7149C40.7268 49.9752 40.8325 49.9968 41.6939 49.9962C42.9302 49.9953 44.0354 49.7242 45.2637 49.1207C47.3757 48.0828 48.8858 46.3077 49.6691 43.9422C49.9291 43.157 49.944 43.017 49.9461 41.3543C49.9481 39.6114 49.9454 39.5884 49.6207 38.6466C48.6988 35.9725 46.7441 34.0173 44.0651 33.0895L43.1152 32.7605L37.1334 32.7319L31.1516 32.7033L32.3397 31.56C33.8562 30.1012 34.082 29.7584 34.082 28.917C34.082 28.1213 33.7819 27.5568 33.1676 27.1968C32.5433 26.8308 31.6458 26.8452 31.0494 27.2304Z" fill="#10894E"/>
</g>
</svg>
