<svg width="20" height="20" viewBox="0 0 20 20" fill="none" xmlns="http://www.w3.org/2000/svg">
<g id="ri:linkedin-line">
<path id="Vector" d="M10.0013 7.95829C10.7655 7.17746 11.7605 6.66663 12.918 6.66663C14.1335 6.66663 15.2993 7.14951 16.1589 8.00905C17.0184 8.86859 17.5013 10.0344 17.5013 11.25V17.5H15.8346V11.25C15.8346 10.4764 15.5273 9.73455 14.9804 9.18756C14.4334 8.64058 13.6915 8.33329 12.918 8.33329C12.1444 8.33329 11.4026 8.64058 10.8556 9.18756C10.3086 9.73455 10.0013 10.4764 10.0013 11.25V17.5H8.33464V7.08329H10.0013V7.95829ZM4.16797 5.41663C3.83645 5.41663 3.51851 5.28493 3.28409 5.05051C3.04966 4.81609 2.91797 4.49815 2.91797 4.16663C2.91797 3.83511 3.04966 3.51716 3.28409 3.28274C3.51851 3.04832 3.83645 2.91663 4.16797 2.91663C4.49949 2.91663 4.81743 3.04832 5.05185 3.28274C5.28627 3.51716 5.41797 3.83511 5.41797 4.16663C5.41797 4.49815 5.28627 4.81609 5.05185 5.05051C4.81743 5.28493 4.49949 5.41663 4.16797 5.41663ZM3.33464 7.08329H5.0013V17.5H3.33464V7.08329Z" fill="#21AB68"/>
</g>
</svg>
