<svg width="40" height="40" viewBox="0 0 40 40" fill="none" xmlns="http://www.w3.org/2000/svg">
<g id="Standard">
<g id="Group 32">
<path id="image 281 (Traced)" fill-rule="evenodd" clip-rule="evenodd" d="M4.73652 3.08076C4.06379 3.29093 3.54345 3.77025 3.20595 4.49059L3.02417 4.87862L3.00535 20.1711C2.99066 32.074 3.00455 35.5293 3.06785 35.7605C3.17104 36.1369 3.59039 36.567 3.96273 36.6783C4.15727 36.7364 4.93021 36.76 6.63698 36.76H9.03749L9.05611 32.6876L9.07466 28.6152L9.28457 28.2138C9.52858 27.7471 9.9462 27.3379 10.4483 27.0735L10.8034 26.8864H13.2635H15.7236L16.1037 27.0731C16.8395 27.4345 17.3282 28.0849 17.485 28.9117C17.525 29.1228 17.552 30.7732 17.552 33.0125V36.76H20.5446H23.5371L23.52 21.9496L23.5028 7.13924L23.3206 6.76856C23.0877 6.2947 22.6295 5.83041 22.1754 5.60827C21.7656 5.4078 21.8275 5.41837 15.1916 4.41246C12.6318 4.02443 9.46508 3.54419 8.15452 3.34532C5.67701 2.96932 5.20919 2.93315 4.73652 3.08076ZM11.2767 8.87613C11.6111 9.03484 11.7894 9.32533 11.8199 9.76123C11.8412 10.0664 11.8185 10.1714 11.69 10.3604C11.3836 10.8112 11.2136 10.86 9.86548 10.8844C9.13556 10.8976 8.55605 10.8777 8.39328 10.8339C8.03644 10.7378 7.67494 10.338 7.6129 9.97087C7.55319 9.61735 7.77886 9.13318 8.10379 8.91788C8.31961 8.77487 8.39029 8.76822 9.68948 8.76822C10.8063 8.76822 11.0899 8.7875 11.2767 8.87613ZM18.417 8.91782C18.7352 9.13437 18.8918 9.37732 18.9296 9.71303C18.9731 10.0983 18.7758 10.4945 18.435 10.7063C18.1925 10.8572 18.1358 10.8626 16.8206 10.8626C15.5054 10.8626 15.4488 10.8572 15.2062 10.7063C14.8654 10.4945 14.6682 10.0983 14.7116 9.71303C14.7494 9.37732 14.906 9.13437 15.2242 8.91782C15.4347 8.7746 15.5025 8.76822 16.8206 8.76822C18.1388 8.76822 18.2066 8.7746 18.417 8.91782ZM11.2767 13.1314C11.6111 13.2901 11.7894 13.5806 11.8199 14.0165C11.8412 14.3217 11.8185 14.4267 11.69 14.6157C11.3836 15.0664 11.2136 15.1153 9.86548 15.1397C9.13556 15.1529 8.55605 15.133 8.39328 15.0892C8.03644 14.9931 7.67494 14.5933 7.6129 14.2262C7.55319 13.8726 7.77886 13.3885 8.10379 13.1732C8.31961 13.0302 8.39029 13.0235 9.68948 13.0235C10.8063 13.0235 11.0899 13.0428 11.2767 13.1314ZM18.417 13.1731C18.7352 13.3897 18.8918 13.6326 18.9296 13.9683C18.9731 14.3536 18.7758 14.7498 18.435 14.9616C18.1925 15.1125 18.1358 15.1179 16.8206 15.1179C15.5054 15.1179 15.4488 15.1125 15.2062 14.9616C14.8654 14.7498 14.6682 14.3536 14.7116 13.9683C14.7494 13.6326 14.906 13.3897 15.2242 13.1731C15.4347 13.0299 15.5025 13.0235 16.8206 13.0235C18.1388 13.0235 18.2066 13.0299 18.417 13.1731ZM11.2767 17.3867C11.6111 17.5454 11.7894 17.8359 11.8199 18.2718C11.8412 18.577 11.8185 18.682 11.69 18.8709C11.3836 19.3217 11.2136 19.3706 9.86548 19.3949C9.13556 19.4082 8.55605 19.3883 8.39328 19.3445C8.03644 19.2484 7.67494 18.8486 7.6129 18.4815C7.55319 18.1279 7.77886 17.6438 8.10379 17.4285C8.31961 17.2854 8.39029 17.2788 9.68948 17.2788C10.8063 17.2788 11.0899 17.2981 11.2767 17.3867ZM18.417 17.4284C18.7352 17.645 18.8918 17.8879 18.9296 18.2236C18.9731 18.6088 18.7758 19.0051 18.435 19.2169C18.1925 19.3677 18.1358 19.3732 16.8206 19.3732C15.5054 19.3732 15.4488 19.3677 15.2062 19.2169C14.8654 19.0051 14.6682 18.6088 14.7116 18.2236C14.7494 17.8879 14.906 17.645 15.2242 17.4284C15.4347 17.2852 15.5025 17.2788 16.8206 17.2788C18.1388 17.2788 18.2066 17.2852 18.417 17.4284ZM11.2767 21.642C11.6111 21.8007 11.7894 22.0912 11.8199 22.5271C11.8412 22.8323 11.8185 22.9373 11.69 23.1262C11.3836 23.577 11.2136 23.6259 9.86548 23.6502C9.13556 23.6635 8.55605 23.6436 8.39328 23.5998C8.03644 23.5037 7.67494 23.1039 7.6129 22.7367C7.55319 22.3832 7.77886 21.899 8.10379 21.6838C8.31961 21.5407 8.39029 21.5341 9.68948 21.5341C10.8063 21.5341 11.0899 21.5534 11.2767 21.642ZM18.417 21.6837C18.7352 21.9002 18.8918 22.1432 18.9296 22.4789C18.9731 22.8641 18.7758 23.2603 18.435 23.4722C18.1925 23.623 18.1358 23.6285 16.8206 23.6285C15.5054 23.6285 15.4488 23.623 15.2062 23.4722C14.8654 23.2603 14.6682 22.8641 14.7116 22.4789C14.7494 22.1432 14.906 21.9002 15.2242 21.6837C15.4347 21.5405 15.5025 21.5341 16.8206 21.5341C18.1388 21.5341 18.2066 21.5405 18.417 21.6837Z" fill="#21AB68"/>
<path id="image 281 (Traced)_2" fill-rule="evenodd" clip-rule="evenodd" d="M25 26.3741V36.7484L30.0698 36.7298L35.1396 36.7112L35.5823 36.5014C36.1322 36.2408 36.5277 35.8431 36.7953 35.2817L37.0012 34.8495V27.3695V19.8895L36.8283 19.5207C36.5207 18.8649 35.9791 18.3734 35.335 18.1653C35.0181 18.063 25.2519 16.0002 25.0831 16C25.017 15.9999 25 18.119 25 26.3741ZM32.2884 22.0212C32.6372 22.2819 32.746 22.4943 32.746 22.9147C32.746 23.3351 32.6372 23.5475 32.2884 23.8082C32.1204 23.9339 31.9956 23.9471 30.7965 23.9667C29.316 23.991 29.0967 23.9521 28.7993 23.6134C28.4515 23.2174 28.4402 22.638 28.7726 22.243C29.0817 21.8756 29.2126 21.8506 30.73 21.8682C32.0011 21.8829 32.1188 21.8945 32.2884 22.0212ZM32.2884 26.2765C32.6372 26.5372 32.746 26.7496 32.746 27.17C32.746 27.5903 32.6372 27.8028 32.2884 28.0635C32.1204 28.1891 31.9956 28.2024 30.7965 28.222C29.316 28.2463 29.0967 28.2074 28.7993 27.8687C28.4515 27.4727 28.4402 26.8933 28.7726 26.4983C29.0817 26.1309 29.2126 26.1058 30.73 26.1235C32.0011 26.1382 32.1188 26.1498 32.2884 26.2765ZM32.2884 30.5318C32.6372 30.7925 32.746 31.0049 32.746 31.4253C32.746 31.8456 32.6372 32.0581 32.2884 32.3188C32.1204 32.4444 31.9956 32.4577 30.7965 32.4773C29.316 32.5015 29.0967 32.4627 28.7993 32.124C28.4515 31.7279 28.4402 31.1486 28.7726 30.7536C29.0817 30.3862 29.2126 30.3611 30.73 30.3788C32.0011 30.3935 32.1188 30.4051 32.2884 30.5318Z" fill="#CBC6A0"/>
</g>
</g>
</svg>
