<svg width="40" height="40" viewBox="0 0 40 40" fill="none" xmlns="http://www.w3.org/2000/svg">
<g id="Starter">
<g id="Group 34">
<path id="image 279 (Traced)" fill-rule="evenodd" clip-rule="evenodd" d="M17.9586 10.7627C14.0962 11.4652 11.0368 14.3184 10.0796 18.1103C9.6478 19.8212 9.72006 21.9142 10.2689 23.5916C10.8297 25.3056 11.9135 26.9343 13.2172 28.0226C14.1943 28.8383 14.6093 29.2969 14.9053 29.8884C15.0553 30.1883 15.2152 30.5996 15.2606 30.8025L15.3432 31.1715H19.6823H24.0214L24.1319 30.7892C24.3916 29.8898 24.9845 29.0562 25.9255 28.2672C27.7676 26.7227 28.9419 24.8099 29.428 22.5624C29.6217 21.6668 29.6647 19.9773 29.5175 19.0409C28.9362 15.3414 26.3861 12.3056 22.8675 11.1243C21.862 10.7868 21.2291 10.6871 19.9091 10.6584C18.8897 10.6362 18.5559 10.654 17.9586 10.7627ZM20.9728 14.2234C22.2545 14.4301 23.3449 14.9957 24.2968 15.9476C25.0347 16.6855 25.4579 17.3522 25.7528 18.2412C26.2488 19.7361 26.189 20.6984 25.5765 21.0769C24.8587 21.5205 23.9644 20.9718 23.9644 20.0876C23.9644 19.6264 23.7416 18.8067 23.4841 18.32C23.1993 17.7822 22.4521 17.0337 21.9244 16.7578C21.4464 16.5078 20.6173 16.28 20.1854 16.28C19.0233 16.28 18.5722 14.8985 19.5435 14.314C19.8445 14.1328 20.2515 14.107 20.9728 14.2234ZM15.4715 34.3791C15.4973 35.2482 15.5307 35.534 15.6415 35.8406C15.9043 36.5666 16.323 37.0368 16.984 37.3481L17.3497 37.5203H19.7097H22.0697L22.4756 37.3328C22.9893 37.0953 23.5014 36.5808 23.7444 36.0577C23.9213 35.677 23.9308 35.6053 23.9536 34.4789L23.9773 33.2988H19.7084H15.4394L15.4715 34.3791Z" fill="#21AB68"/>
<path id="image 279 (Traced)_2" fill-rule="evenodd" clip-rule="evenodd" d="M19.5753 3.06964C19.329 3.18366 19.1082 3.4182 19.0146 3.66523C18.9714 3.77931 18.9441 4.47988 18.9448 5.46019C18.9458 7.00032 18.9522 7.07916 19.0947 7.33391C19.2555 7.62144 19.7038 7.89899 20.0074 7.89899C20.3099 7.89899 20.7592 7.62131 20.9219 7.33391C21.0688 7.07431 21.0719 7.02764 21.0551 5.36086C21.0388 3.75498 21.0297 3.64283 20.9007 3.47032C20.8253 3.3694 20.6855 3.22846 20.5899 3.15713C20.3696 2.99266 19.8402 2.94699 19.5753 3.06964ZM8.39438 7.70633C7.88987 7.85232 7.57136 8.44539 7.71084 8.97929C7.77333 9.21848 7.97017 9.44717 8.99316 10.469C10.1449 11.6195 10.2164 11.6783 10.5166 11.7229C11.2235 11.8279 11.8375 11.2144 11.7317 10.5089C11.6873 10.2125 11.622 10.1316 10.5443 9.03885C9.19533 7.67103 8.97927 7.53708 8.39438 7.70633ZM30.8768 7.75925C30.7119 7.8357 30.1778 8.3216 29.4705 9.03885C28.4012 10.1231 28.3272 10.2143 28.284 10.5022C28.1628 11.3107 28.923 11.9478 29.6691 11.6629C30.0872 11.5032 32.195 9.36919 32.306 8.99325C32.4635 8.45948 32.1257 7.85146 31.5887 7.70228C31.2569 7.61014 31.1863 7.61579 30.8768 7.75925ZM3.61682 19.0282C2.99391 19.2995 2.79792 20.1478 3.23742 20.6702C3.54675 21.0378 3.68523 21.0621 5.46283 21.0609C7.00961 21.0598 7.08819 21.0536 7.34301 20.911C7.63053 20.7502 7.90808 20.3018 7.90808 19.9983C7.90808 19.6947 7.63053 19.2464 7.34301 19.0856C7.08759 18.9427 7.01267 18.9369 5.44833 18.9383C4.24299 18.9394 3.76686 18.9628 3.61682 19.0282ZM32.6718 19.0838C32.3844 19.2465 32.1067 19.6958 32.1067 19.9983C32.1067 20.3008 32.3844 20.7501 32.6718 20.9128C32.9314 21.0597 32.978 21.0628 34.6448 21.046C36.5247 21.027 36.5137 21.0293 36.8559 20.571C37.048 20.3136 37.048 19.683 36.8559 19.4256C36.5137 18.9673 36.5247 18.9696 34.6448 18.9506C32.978 18.9338 32.9314 18.9369 32.6718 19.0838ZM10.3678 28.2903C10.2637 28.3094 9.7503 28.7715 8.99316 29.5278C7.66184 30.8575 7.56086 31.0169 7.70672 31.5586C7.79932 31.9024 8.20511 32.2681 8.56071 32.3282C9.03199 32.4079 9.29152 32.2286 10.5443 30.958C11.6219 29.865 11.6873 29.7841 11.7317 29.4877C11.7997 29.0343 11.5745 28.5963 11.1681 28.3913C10.8813 28.2467 10.7183 28.2261 10.3678 28.2903ZM28.8672 28.3687C28.3764 28.5978 28.15 29.1552 28.3428 29.66C28.5025 30.0781 30.6365 32.1859 31.0124 32.2969C31.7765 32.5225 32.5316 31.7672 32.3059 31.0033C32.2437 30.7928 31.9944 30.5 31.1528 29.6491C30.5622 29.0521 29.9993 28.5059 29.9019 28.4354C29.6316 28.24 29.2022 28.2123 28.8672 28.3687Z" fill="#CBC6A0"/>
</g>
</g>
</svg>
