<svg width="50" height="52" viewBox="0 0 50 52" fill="none" xmlns="http://www.w3.org/2000/svg">
<g id="Terms">
<path id="Layer 1" fill-rule="evenodd" clip-rule="evenodd" d="M8.16694 0.394685C5.02974 1.18111 2.79125 3.56388 2.16101 6.78767C1.94633 7.88567 1.94633 43.7184 2.16101 44.8164C2.70836 47.6163 4.45239 49.7765 7.01705 50.8315C8.32332 51.3688 8.62299 51.3965 13.1455 51.3981C17.0578 51.3995 17.3477 51.3875 17.695 51.2093C18.1641 50.9688 18.4642 50.648 18.6611 50.1765C19.0703 49.1973 18.6536 48.0818 17.695 47.5903C17.3518 47.4142 17.0643 47.3998 13.8454 47.3967C11.9321 47.3949 10.0634 47.3543 9.69259 47.3065C7.94286 47.0809 6.53399 45.7852 6.21862 44.1117C6.07884 43.3697 6.07884 8.23444 6.21862 7.49241C6.53399 5.81887 7.94286 4.52319 9.69259 4.29761C10.5724 4.18412 34.1588 4.18412 35.0386 4.29761C36.7883 4.52319 38.1972 5.81887 38.5125 7.49241C38.5746 7.82188 38.614 10.5423 38.614 14.4956V20.9601L38.839 21.4005C38.9628 21.6427 39.2353 21.9771 39.4445 22.1437C39.7658 22.3993 39.9309 22.4525 40.5031 22.4848C41.5087 22.5416 42.2011 22.1356 42.5588 21.2793C42.7813 20.7468 42.7913 7.91907 42.5701 6.78767C41.9271 3.49859 39.627 1.09202 36.4321 0.365388C35.8002 0.221602 34.2945 0.205303 22.2959 0.211903C9.83958 0.218702 8.81617 0.231901 8.16694 0.394685ZM11.1666 12.3606C9.79038 13.0764 9.6277 14.8737 10.851 15.8472L11.2351 16.153L22.2263 16.1793C32.8873 16.2048 33.2286 16.1998 33.5909 16.014C35.09 15.2453 35.0915 13.1618 33.5935 12.3936C33.2355 12.2101 32.8411 12.2034 22.3446 12.204C12.6841 12.2046 11.433 12.2221 11.1666 12.3606ZM11.1666 20.3599C9.79038 21.0756 9.6277 22.8729 10.851 23.8464L11.2351 24.1522L22.2263 24.1785C32.8873 24.204 33.2286 24.199 33.5909 24.0132C35.09 23.2445 35.0915 21.161 33.5935 20.3929C33.2355 20.2093 32.8411 20.2026 22.3446 20.2032C12.6841 20.2038 11.433 20.2213 11.1666 20.3599ZM40.4248 27.5543C39.6238 27.7783 39.0615 28.0498 38.3774 28.5432C38.0401 28.7864 35.192 31.5651 32.0483 34.718L26.3324 40.4507L25.9786 41.6005C23.8541 48.5071 23.7856 48.7502 23.7755 49.4158C23.7666 50.0048 23.8005 50.1317 24.0696 50.5149C24.2368 50.7531 24.5518 51.0488 24.7695 51.1721C25.4745 51.5714 25.8725 51.5064 30.3823 50.2551C32.6467 49.6268 34.649 49.0381 34.8319 48.947C35.0148 48.8559 37.8019 46.1419 41.0257 42.9161C46.8487 37.0892 46.8896 37.0455 47.3019 36.2011C48.2262 34.3075 48.2326 32.4951 47.3214 30.6516C46.6609 29.3153 45.4 28.1988 43.9858 27.6981C43.165 27.4073 41.2295 27.3292 40.4248 27.5543ZM11.1666 28.358C9.78978 29.0791 9.6275 30.8721 10.851 31.8457L11.2352 32.1514H18.316H25.3967L25.781 31.8457C26.874 30.9759 26.8741 29.4275 25.781 28.5576L25.3968 28.2518L18.4318 28.2263C12.2615 28.2037 11.4324 28.2188 11.1666 28.358ZM42.6821 31.6079C43.3245 31.8506 43.9091 32.7051 43.9091 33.4013C43.9091 33.851 43.6184 34.4765 43.2478 34.8242L42.9568 35.0972L41.6142 33.7518L40.2717 32.4064L40.5677 32.0918C40.7306 31.9188 40.9988 31.7169 41.1638 31.6432C41.5278 31.4807 42.2981 31.4628 42.6821 31.6079ZM36.3874 41.6755L32.712 45.3502L30.7986 45.8769C29.7462 46.1666 28.8744 46.3916 28.8612 46.3769C28.848 46.3621 29.0909 45.5061 29.401 44.4746L29.9649 42.599L33.6422 38.9282L37.3195 35.2574L38.6912 36.6291L40.0629 38.0008L36.3874 41.6755Z" fill="#10894E"/>
</g>
</svg>
