<svg width="82" height="102" viewBox="0 0 82 102" fill="none" xmlns="http://www.w3.org/2000/svg">
<path fill-rule="evenodd" clip-rule="evenodd" d="M89.7345 -31.002C89.8425 -31.6312 89.8988 -32.278 89.8988 -32.938C89.8988 -39.2099 84.8144 -44.2944 78.5424 -44.2944C72.2704 -44.2944 67.186 -39.2099 67.186 -32.938C67.186 -32.278 67.2423 -31.6312 67.3504 -31.002H0V-18.1188H8.3666V85.5732H0.315068V98.4564H14.8082H146.822H160.842V85.5732H153.263V-18.1188H160.842V-31.002H146.822H89.7345ZM21.2498 85.5732V-18.1188H140.38V85.5732H105.78C105.368 79.911 105.794 75.5294 107.006 71.5644C108.679 66.0884 112.053 60.7294 118.261 53.5713C120.762 50.6877 121.013 46.3844 118.668 43.2197L87.4184 1.04124C84.1017 -3.4353 77.3954 -3.41217 74.1097 1.08717L43.2902 43.2907C41.0305 46.3851 41.2298 50.5529 43.5838 53.4228C49.4346 60.5561 52.6474 65.9613 54.293 71.5265C55.4795 75.5388 55.9437 79.9479 55.6922 85.5732H21.2498ZM68.5868 85.5732H92.8685C92.4808 79.1499 92.9774 73.3889 94.6847 67.8004C96.8245 60.796 100.712 54.577 106.143 47.9552L87.0717 22.2147V51.9823C87.0717 55.5399 84.1877 58.424 80.6301 58.424C77.0725 58.424 74.1885 55.5399 74.1885 51.9823V22.8245L55.773 48.0424C60.9389 54.7029 64.5902 60.9164 66.6474 67.8733C68.2898 73.4275 68.8289 79.1593 68.5868 85.5732Z" fill="#ECEADB" fill-opacity="0.5"/>
</svg>
